<?xml version="1.0" standalone="no"?>
<!DOCTYPE svg PUBLIC "-//W3C//DTD SVG 1.1//EN" "http://www.w3.org/Graphics/SVG/1.1/DTD/svg11.dtd" >
<svg>
<metadata>
Created by FontForge 20090622 at Sat Apr 29 09:19:21 2017
 By deploy user
Copyright (c) 2010-2012 by Claus Eggers S&#195;&#184;rensen (es@forthehearts.net), with Reserved Font Name 'Playfair'.
</metadata>
<defs>
<font id="PlayfairDisplaySC-Italic" horiz-adv-x="1294" >
  <font-face 
    font-family="Playfair Display SC"
    font-weight="400"
    font-style="italic"
    font-stretch="normal"
    units-per-em="2048"
    panose-1="0 0 5 0 0 0 0 0 0 0"
    ascent="1638"
    descent="-410"
    x-height="1245"
    cap-height="1450"
    bbox="-295 -399 2187 1918"
    underline-thickness="20"
    underline-position="-90"
    slope="-14"
    unicode-range="U+000D-U+E000"
  />
<missing-glyph horiz-adv-x="748" 
d="M68 0v1365h544v-1365h-544zM136 68h408v1229h-408v-1229z" />
    <glyph glyph-name=".notdef" horiz-adv-x="748" 
d="M68 0v1365h544v-1365h-544zM136 68h408v1229h-408v-1229z" />
    <glyph glyph-name="glyph1" horiz-adv-x="2048" 
 />
    <glyph glyph-name="glyph1" horiz-adv-x="2048" 
 />
    <glyph glyph-name="glyph2" horiz-adv-x="682" 
 />
    <glyph glyph-name="uni000D" unicode="&#xd;" horiz-adv-x="0" 
 />
    <glyph glyph-name="space" unicode=" " horiz-adv-x="518" 
 />
    <glyph glyph-name="exclam" unicode="!" horiz-adv-x="539" 
d="M13 76q0 40 22 76.5t57.5 58.5t73.5 22q46 0 75 -30.5t29 -76.5q0 -40 -21.5 -75.5t-57.5 -57.5t-75 -22q-45 0 -74 30t-29 75zM193 408q41 161 71.5 320.5t75 424.5t72.5 369q10 38 34.5 59t57.5 21q47 0 70.5 -23t23.5 -60q0 -20 -8 -44q-24 -83 -107.5 -309
l-144 -400.5t-109.5 -364.5z" />
    <glyph glyph-name="quotedbl" unicode="&#x22;" horiz-adv-x="606" 
d="M287 1061q12 90 18 162t10 110.5t13 75.5q10 43 33.5 64.5t52.5 21.5q63 0 63 -68q0 -37 -15.5 -74t-64.5 -125.5t-82 -166.5h-28zM510 1061q12 90 18 162t10 110.5t13 75.5q10 43 33.5 64.5t52.5 21.5q63 0 63 -68q0 -37 -15.5 -74t-64.5 -125.5t-82 -166.5h-28z" />
    <glyph glyph-name="numbersign" unicode="#" horiz-adv-x="1309" 
d="M76 506l18 41h301l159 342h-300l16 41h303l140 303h49l-140 -303h334l140 303h49l-140 -303h291l-16 -41h-294l-159 -342h293l-20 -41h-292l-138 -299h-49l138 299h-334l-138 -299h-49l138 299h-300zM444 547h334l159 342h-334z" />
    <glyph glyph-name="dollar" unicode="$" horiz-adv-x="1128" 
d="M2 305q0 66 33.5 114t89.5 48q52 0 78 -38.5t26 -94.5q0 -60 -21 -109t-58 -108q45 -46 115 -73l188 675q-84 84 -130.5 168t-46.5 192q0 114 53.5 199.5t141.5 135t192 61.5l68 245h45l-67 -241h18q79 0 145 -17l72 258h45l-75 -271q44 -17 75.5 -37t71.5 -52
q40 -31 73 -90.5t33 -124.5q0 -66 -33.5 -114t-89.5 -48q-51 0 -77.5 39t-26.5 94q0 60 21.5 110t58.5 107q-46 47 -118 75l-178 -641q75 -70 124 -127t81 -124.5t32 -142.5q0 -123 -65.5 -209.5t-169.5 -133t-222 -56.5l-68 -244h-45l67 241h-16q-81 0 -147 18l-72 -259
h-45l76 272q-44 16 -75 36.5t-70 51.5q-46 35 -76.5 92t-30.5 123zM306 30q67 -18 143 -18h20l151 543q-21 22 -132 129zM442 1180q0 -103 81 -209l128 462q-97 -18 -153 -81.5t-56 -171.5zM515 16q111 14 173 77t62 175q0 128 -96 247zM557 930q40 -45 131 -130l173 622
q-63 18 -132 18l-31 -1z" />
    <glyph glyph-name="percent" unicode="%" horiz-adv-x="1569" 
d="M-19 -86l1706 1774l31 -27l-1706 -1774zM229 1094q0 109 56.5 217t154 178t213.5 70q108 0 168 -56t60 -157q0 -109 -56 -217.5t-153 -178t-213 -69.5q-109 0 -169.5 55t-60.5 158zM367 1055q0 -137 106 -137q81 0 142.5 81.5t94.5 193t33 193.5q0 136 -106 136
q-81 0 -142.5 -81.5t-94.5 -193t-33 -192.5zM770 184q0 109 56 217t153.5 178t214.5 70q107 0 167 -56t60 -157q0 -109 -55.5 -217t-152.5 -178t-214 -70q-108 0 -168.5 55.5t-60.5 157.5zM907 145q0 -137 107 -137q81 0 142.5 81.5t94.5 193.5t33 194q0 67 -27.5 101
t-78.5 34q-82 0 -143.5 -81.5t-94.5 -193t-33 -192.5z" />
    <glyph glyph-name="ampersand" unicode="&#x26;" horiz-adv-x="1673" 
d="M78 403q0 120 57 225t157 180t226 110q-69 37 -106 98.5t-37 130.5q0 89 60.5 155t154.5 101t190 35q76 0 133 -22.5t88 -62.5t31 -93q0 -50 -25.5 -84.5t-65.5 -52t-83 -17.5l4 37q57 0 92 30t35 82q0 68 -56 109t-142 41q-83 0 -149 -39.5t-103 -109t-37 -156.5
q0 -95 45 -170q73 12 129 12q74 0 74 -43q0 -22 -19 -32.5t-45 -10.5q-51 0 -141 45q-93 -27 -164 -87t-110.5 -142t-39.5 -174q0 -120 66 -204.5t182 -127.5t266 -43q159 0 287.5 47t202.5 134t74 200q0 75 -34.5 147t-103.5 122q-210 -77 -260 -97q-92 -36 -153.5 -82.5
t-61.5 -120.5q0 -63 50.5 -100t123.5 -37q81 0 132 40t77 81l27 -19q-82 -135 -244 -135q-95 0 -158 47t-63 154q0 119 85 197t255 141l155.5 55.5l207.5 76t167 70.5q101 49 156 102.5t55 125.5q0 49 -26.5 89.5t-73 63.5t-102.5 23q-54 0 -66 -18q21 -12 32 -33t11 -45
q0 -31 -19 -58t-50 -43t-66 -16q-41 0 -66.5 23t-25.5 63q0 42 28.5 75.5t73.5 53.5q68 29 150 29q118 0 187 -58t69 -176q0 -104 -59.5 -184t-190.5 -146q-92 -45 -327 -131q149 -125 149 -307q0 -136 -81.5 -252t-236 -185t-364.5 -69q-180 0 -313 52t-205 149t-72 231z
" />
    <glyph glyph-name="quotesingle" unicode="'" horiz-adv-x="383" 
d="M287 1061q12 90 18 162t10 110.5t13 75.5q10 43 33.5 64.5t52.5 21.5q63 0 63 -68q0 -37 -15.5 -74t-64.5 -125.5t-82 -166.5h-28z" />
    <glyph glyph-name="parenleft" unicode="(" horiz-adv-x="739" 
d="M78 457q0 222 115 443.5t315.5 414t456.5 336.5l20 -27q-360 -243 -554.5 -532.5t-194.5 -657.5q0 -464 225 -780l-37 -27q-113 128 -188 249t-116.5 264t-41.5 317z" />
    <glyph glyph-name="parenright" unicode=")" horiz-adv-x="739" 
d="M-227 -346q360 243 554.5 532.5t194.5 657.5q0 464 -225 780l37 27q113 -128 188 -249t116.5 -264t41.5 -317q0 -222 -115 -443.5t-315.5 -414t-456.5 -336.5z" />
    <glyph glyph-name="asterisk" unicode="*" horiz-adv-x="1014" 
d="M199 865q0 51 88 100q36 17 77.5 29.5t120 32t126.5 32.5q-43 14 -114.5 34.5t-108 33t-60.5 28.5q-50 31 -50 74q0 27 19 49q23 32 64 32q33 0 67 -24q26 -17 49.5 -42.5t68 -82t76.5 -93.5q-2 37 -8.5 114.5t-6.5 124.5q0 46 5 75q13 57 41.5 84t59.5 27q24 0 39 -16
t15 -51q0 -23 -5 -44q-6 -36 -22.5 -77t-51.5 -115t-54 -118l112 93l95.5 77.5t67.5 45.5q47 23 80 23q43 0 55 -35q4 -12 4 -19q0 -54 -87 -100q-36 -17 -77.5 -29.5t-120.5 -32l-128 -32.5q44 -14 116 -34.5t108 -33t61 -28.5q49 -31 49 -73q0 -28 -19 -50
q-23 -32 -63 -32q-33 0 -68 24q-26 16 -49.5 41.5t-66 79l-71.5 87.5q2 -56 5.5 -127t3.5 -108q0 -42 -4 -70q-15 -57 -43.5 -83.5t-61.5 -26.5q-23 0 -37.5 16t-14.5 50q0 23 5 44q7 40 26.5 86.5t53 113l57.5 116.5h-1l-113.5 -94t-99 -80.5t-70.5 -46.5q-47 -23 -80 -23
q-43 0 -55 35q-4 12 -4 19z" />
    <glyph glyph-name="plus" unicode="+" horiz-adv-x="1198" 
d="M111 696l18 62h477l137 483h74l-137 -483h475l-18 -62h-475l-138 -481h-73l137 481h-477z" />
    <glyph glyph-name="comma" unicode="," horiz-adv-x="516" 
d="M-47 -246q97 59 154 129t63 140q-59 -52 -107 -52q-36 0 -56.5 19.5t-20.5 52.5q0 43 27.5 87.5t71.5 73.5t89 29t67.5 -35t22.5 -85q0 -71 -36 -143t-104 -135.5t-161 -108.5z" />
    <glyph glyph-name="hyphen" unicode="-" horiz-adv-x="1032" 
d="M109 461l30 119h740l-31 -119h-739z" />
    <glyph glyph-name="period" unicode="." horiz-adv-x="500" 
d="M-3 76q0 40 22 76.5t57.5 58.5t73.5 22q46 0 75 -30.5t29 -76.5q0 -40 -21.5 -75.5t-57.5 -57.5t-75 -22q-45 0 -74 30t-29 75z" />
    <glyph glyph-name="slash" unicode="/" horiz-adv-x="958" 
d="M-82 -29l1122 1508h68l-1122 -1508h-68z" />
    <glyph glyph-name="zero" unicode="0" horiz-adv-x="1157" 
d="M63 336q0 182 93 356t247 282.5t326 108.5q157 0 239.5 -95t82.5 -267q0 -183 -89 -357.5t-239.5 -283.5t-323.5 -109q-103 0 -179 42t-116.5 124t-40.5 199zM252 317q0 -309 186 -309q115 0 212.5 108.5t154.5 281.5t57 354q0 158 -45 226.5t-127 68.5
q-110 0 -211.5 -103.5t-164 -272.5t-62.5 -354z" />
    <glyph glyph-name="one" unicode="1" horiz-adv-x="700" 
d="M102 762l7 43q119 36 208.5 80.5t149.5 87t135 104.5h41l-317 -1077h-179l263 887q-121 -68 -308 -125z" />
    <glyph glyph-name="two" unicode="2" horiz-adv-x="1030" 
d="M-43 0l10 43q36 28 252.5 180.5t355 315t138.5 317.5q0 84 -40.5 132t-117.5 48q-74 0 -156.5 -49t-138 -125.5t-55.5 -154.5q0 -51 28 -75t91 -24q53 0 95 20t93 64l25 -28q-54 -51 -113.5 -75t-114.5 -24q-63 0 -108 31t-45 109q0 90 64 177.5t172 143t231 55.5
q126 0 201 -53t75 -149q0 -143 -146 -282t-325.5 -263.5t-216.5 -155.5q57 0 155 -17.5l163 -28.5t116 -11q141 0 141 98q0 75 -90 117l27 26q113 -52 113 -161q0 -57 -27 -105t-84.5 -78t-144.5 -30q-66 0 -149.5 20.5t-135 31t-119.5 10.5q-61 0 -108.5 -11.5
t-110.5 -38.5z" />
    <glyph glyph-name="three" unicode="3" horiz-adv-x="993" 
d="M-164 -309l10 37q176 11 352.5 79.5t294 192.5t117.5 293q0 82 -46 132t-128 54q-48 -19 -72 -27t-47 -8q-36 0 -36 21q0 2 2 10q8 38 97 38q26 0 40 -1q82 31 150.5 84t109.5 120.5t41 141.5q0 86 -45 135t-123 49q-70 0 -148 -39.5t-130 -102t-52 -126.5q0 -50 28 -74
t91 -24q69 0 127 31l23 -31q-80 -43 -164 -43q-64 0 -109 30.5t-45 108.5q0 75 61 148.5t164 120t222 46.5q126 0 201 -53t75 -149q0 -88 -65 -164t-162.5 -129.5t-196.5 -79.5q93 -2 167.5 -29t117.5 -79t43 -125q0 -176 -155 -309t-381 -204.5t-429 -74.5z" />
    <glyph glyph-name="four" unicode="4" horiz-adv-x="1055" 
d="M-104 70l12 43l893 970h53l-240 -897h275l-33 -116h-273l-96 -359h-178l96 359h-509zM29 186h407l167 627z" />
    <glyph glyph-name="five" unicode="5" horiz-adv-x="940" 
d="M-166 -303l10 37q166 1 333.5 68t278.5 194.5t111 300.5q0 82 -52.5 129t-162.5 47q-108 0 -227 -55l-21 10l308 633q54 3 108 -14.5t90 -27t95 -9.5q116 0 169 92l25 -15q-103 -225 -281 -225q-25 0 -50.5 9.5t-79.5 36.5t-85 27q-8 0 -12 -1l-229 -469q66 35 134 52.5
t153 17.5q157 0 235 -64t78 -170q0 -188 -150 -322.5t-366.5 -204.5t-411.5 -77z" />
    <glyph glyph-name="six" unicode="6" horiz-adv-x="1079" 
d="M74 338q0 290 164.5 538t400 406.5t434.5 196.5l12 -41q-197 -47 -388.5 -215t-314 -416.5t-122.5 -525.5q0 -150 37.5 -209.5t110.5 -59.5q108 0 192 100t130 246t46 273q0 207 -133 207q-67 0 -131 -58.5t-111 -191.5l-32 12q50 159 143.5 228t198.5 69q77 0 135 -36
t90.5 -105t32.5 -166q0 -159 -82 -302t-219 -230t-293 -87q-154 0 -227.5 92t-73.5 275z" />
    <glyph glyph-name="seven" unicode="7" horiz-adv-x="997" 
d="M100 817q0 62 31.5 119t96.5 93t161 36q63 0 116.5 -13t163 -51.5t196.5 -38.5q61 0 107 20.5t83 70.5h53q-56 -75 -239 -286.5t-302.5 -398.5t-177.5 -405q-11 -38 -20.5 -91t-14.5 -71q-13 -44 -46.5 -74t-80.5 -30q-64 0 -64 69q0 18 5 46q32 187 195.5 409.5
t366.5 450t253 288.5q-130 -88 -301 -88q-57 0 -101.5 8.5t-121.5 30t-133 21.5q-80 0 -128 -35t-48 -102q0 -86 69 -143.5t215 -92.5l-12 -31q-322 62 -322 289z" />
    <glyph glyph-name="eight" unicode="8" horiz-adv-x="1114" 
d="M20 236q0 167 144 300.5t347 221.5q-60 58 -99.5 106.5t-64.5 108t-25 129.5q0 110 70 196t183 133.5t236 47.5q130 0 209.5 -55t79.5 -162q0 -237 -406 -451q82 -79 129 -132.5t81 -125.5t34 -158q0 -127 -74 -223t-201 -148.5t-280 -52.5q-166 0 -264.5 65.5
t-98.5 199.5zM201 217q0 -99 46.5 -154t153.5 -55q93 0 174.5 41t131 119.5t49.5 183.5q0 79 -30 145t-73.5 116t-117.5 122q-98 -54 -173.5 -135.5t-118 -180.5t-42.5 -202zM492 1147q0 -60 23.5 -113.5t61 -99t94.5 -101.5q71 48 131 117t96 151.5t36 166.5
q0 174 -160 174q-76 0 -141 -37.5t-103 -105t-38 -152.5z" />
    <glyph glyph-name="nine" unicode="9" horiz-adv-x="1051" 
d="M-37 -344q192 45 379 206.5t306.5 402t119.5 507.5q0 150 -37 209t-110 59q-109 0 -193 -100t-130 -245.5t-46 -272.5q0 -207 133 -207q67 0 131 58.5t111 191.5l32 -12q-50 -160 -143 -228.5t-199 -68.5q-77 0 -135 35.5t-90.5 104.5t-32.5 167q0 158 82 301t219 230
t293 87q154 0 227.5 -91.5t73.5 -274.5q0 -281 -161 -520t-392 -391.5t-426 -188.5z" />
    <glyph glyph-name="colon" unicode=":" horiz-adv-x="569" 
d="M32 76q0 40 22 76.5t57.5 58.5t73.5 22q46 0 75 -30.5t29 -76.5q0 -40 -21.5 -75.5t-57.5 -57.5t-75 -22q-45 0 -74 30t-29 75zM237 924q0 40 22 76.5t57.5 58.5t73.5 22q46 0 75 -30.5t29 -76.5q0 -40 -21.5 -75.5t-57.5 -57.5t-75 -22q-45 0 -74 30t-29 75z" />
    <glyph glyph-name="semicolon" unicode=";" horiz-adv-x="588" 
d="M-6 -246q97 59 154 129t63 140q-59 -52 -107 -52q-36 0 -56.5 19.5t-20.5 52.5q0 43 27.5 87.5t71.5 73.5t89 29t67.5 -35t22.5 -85q0 -71 -36 -143t-104 -135.5t-161 -108.5zM239 924q0 40 22 76.5t57.5 58.5t73.5 22q46 0 75 -30.5t29 -76.5q0 -40 -21.5 -75.5
t-57.5 -57.5t-75 -22q-45 0 -74 30t-29 75z" />
    <glyph glyph-name="less" unicode="&#x3c;" horiz-adv-x="1233" 
d="M104 727l1131 465l20 -59l-997 -414l678 -357l-33 -65z" />
    <glyph glyph-name="equal" unicode="=" horiz-adv-x="1358" 
d="M143 553l19 61h1026l-19 -61h-1026zM225 840l19 61h1026l-19 -61h-1026z" />
    <glyph glyph-name="greater" unicode="&#x3e;" horiz-adv-x="1233" 
d="M106 377l943 393l-758 406l33 59l878 -473l-1075 -445z" />
    <glyph glyph-name="question" unicode="?" horiz-adv-x="897" 
d="M176 584q0 106 74 186.5t174 154.5l133 99q102 78 157.5 130.5t82 104t26.5 115.5q0 88 -46.5 140.5t-139.5 52.5q-68 0 -133 -26.5t-80 -74.5q19 -5 35 -28.5t16 -53.5q0 -44 -31 -72t-77 -28q-41 0 -61.5 23t-20.5 63q0 66 55.5 119t145 83t184.5 30q137 0 220 -63
t83 -179q0 -65 -31.5 -130t-105.5 -141.5t-201 -175.5l-156 -116t-137 -124t-37 -112t35.5 -101.5t110.5 -39.5q60 0 117.5 24.5t78.5 65.5q-19 2 -36.5 24t-16.5 48q0 32 26 58t66 26q31 0 50.5 -17.5t19.5 -54.5q0 -61 -53 -109t-133.5 -74t-157.5 -26q-108 0 -172 51.5
t-64 147.5zM218 76q0 40 22 76.5t57.5 58.5t73.5 22q46 0 75 -30.5t29 -76.5q0 -40 -21.5 -75.5t-57.5 -57.5t-75 -22q-45 0 -74 30t-29 75z" />
    <glyph glyph-name="at" unicode="@" horiz-adv-x="1737" 
d="M59 293q0 273 133.5 522t361 401t495.5 152q185 0 328.5 -59.5t227 -185.5t83.5 -318q0 -217 -95 -389t-234.5 -267.5t-264.5 -95.5q-148 0 -148 133q0 48 19 114q-62 -127 -133 -187t-170 -60q-110 0 -160.5 67.5t-50.5 180.5q0 152 80 311t204.5 263t247.5 104
q62 0 96 -31.5t39 -101.5l29 104q117 0 184 29l-217 -752q-13 -42 -13 -70q0 -29 14.5 -41t45.5 -12q78 0 195 87.5t204 247.5t87 368q0 182 -79.5 299t-213.5 171t-303 54q-247 0 -466.5 -142.5t-352 -381t-132.5 -510.5q0 -204 78 -336t216 -193t321 -61q237 0 422 111
l14 -27q-79 -56 -192.5 -88.5t-245.5 -32.5q-196 0 -342.5 66.5t-229 206t-82.5 350.5zM625 313q0 -198 106 -198q77 0 149.5 106t153.5 325l68 242q-2 144 -111 144q-95 0 -179.5 -93.5t-135.5 -238t-51 -287.5z" />
    <glyph glyph-name="A" unicode="A" horiz-adv-x="1288" 
d="M-178 0l10 41q94 20 205 178l883 1241h30l82 -1288q5 -67 34.5 -98t66.5 -33l-9 -41q-82 6 -223 6q-165 0 -246 -6l9 41q70 3 108 17t54 50q14 30 14 85v20l-19 336h-503l-154 -217q-96 -136 -96 -204q0 -84 151 -87l-10 -41q-114 6 -234 6q-89 0 -153 -6zM347 590h472
l-34 619z" />
    <glyph glyph-name="B" unicode="B" 
d="M-68 0l9 41q74 3 110.5 16t58.5 48t42 112l270 1016q17 68 17 98q0 41 -30 59t-108 19l10 41q84 -6 244 -6q46 0 141 2t148 2q190 0 287.5 -70t97.5 -192q0 -100 -59 -183.5t-154 -142.5t-207 -94q336 -55 336 -334q0 -139 -88 -237t-228 -146.5t-294 -48.5q-49 0 -163 3
t-190 3q-163 0 -250 -6zM323 117q0 -38 27 -54t96 -16q261 0 377.5 105t116.5 311q0 272 -293 272h-168l-137 -518q-19 -73 -19 -100zM488 770h135q119 0 211 55.5t142 147.5t50 198q0 122 -52.5 180t-168.5 58q-62 0 -96.5 -12t-54.5 -42t-36 -91z" />
    <glyph glyph-name="C" unicode="C" horiz-adv-x="1372" 
d="M104 453q0 236 118 475.5t323.5 395t451.5 155.5q83 0 139 -18t90.5 -44.5t76.5 -70.5q18 -18 31 -18q36 0 81 122h43q-68 -177 -131 -471h-45q12 80 12 140q0 96 -32 163q-38 76 -110.5 118t-158.5 42q-170 0 -328.5 -160t-257 -402.5t-98.5 -469.5q0 -198 77.5 -300
t215.5 -102q90 0 190.5 42t174.5 118q52 53 91.5 124t92.5 200h45q-93 -340 -121 -492h-45q6 44 6 70q0 52 -24 52q-16 0 -43 -18q-73 -47 -122.5 -73t-114.5 -43t-150 -17q-228 0 -353 123t-125 359z" />
    <glyph glyph-name="D" unicode="D" horiz-adv-x="1485" 
d="M-61 0l6 41q70 3 105.5 16t57.5 48.5t42 111.5l268 1016q19 74 19 101q0 40 -30 56.5t-108 18.5l6 41q110 -7 200 -7l50 1q282 6 309 6q288 0 433 -115t145 -338q0 -256 -126.5 -486t-349 -370.5t-495.5 -140.5q-28 0 -133.5 3t-153.5 3q-165 0 -245 -6zM321 112
q0 -39 28 -57t97 -18q254 0 434.5 138.5t272.5 369t92 504.5q0 185 -104 274.5t-334 89.5q-64 0 -100 -14.5t-58 -51.5t-41 -110l-268 -1024q-19 -71 -19 -101z" />
    <glyph glyph-name="E" unicode="E" horiz-adv-x="1249" 
d="M-72 0l11 41q74 3 110 16t58 48t43 112l272 1016q18 65 18 100q0 30 -13.5 45.5t-42 22t-81.5 8.5l10 41q201 -6 594 -6q287 0 408 6q-54 -148 -78 -242q-23 -80 -29 -127h-47q18 110 18 165q0 59 -19 92.5t-63.5 49t-123.5 15.5h-150q-73 0 -109.5 -12t-58.5 -46.5
t-43 -111.5l-129 -483h135q102 0 153 61t76 125t34 84h47q-42 -129 -60.5 -201t-23.5 -90q-27 -96 -66 -291h-47q2 14 9 59t7 80q0 63 -31 97.5t-110 34.5h-134l-132 -492q-18 -64 -18 -99q0 -30 14 -45t43 -20.5t82 -5.5h149q128 0 203.5 34t125.5 109t103 220h48
q-20 -50 -46 -148q-30 -110 -55 -262q-139 6 -469 6q-393 0 -592 -6z" />
    <glyph glyph-name="F" unicode="F" horiz-adv-x="1159" 
d="M-72 0l11 41q74 3 110 16t58 48t43 112l272 1016q18 65 18 100q0 30 -13.5 45.5t-42 22t-81.5 8.5l10 41q201 -6 594 -6q287 0 408 6q-53 -149 -84 -262q-22 -76 -39 -168h-47q23 136 23 204q0 67 -21.5 105.5t-72.5 56t-142 17.5h-109q-73 0 -109.5 -12t-58.5 -46.5
t-43 -111.5l-135 -504h150q104 0 155 62.5t75.5 126l31.5 81.5h47q-41 -125 -60 -197.5l-24 -92.5q-43 -181 -66 -291h-47q3 18 10 63.5t7 78.5q0 61 -31 94.5t-109 33.5h-150l-126 -471q-16 -61 -16 -91q0 -34 17 -51.5t54 -24.5t105 -9l-11 -41q-106 6 -301 6
q-173 0 -260 -6z" />
    <glyph glyph-name="G" unicode="G" horiz-adv-x="1444" 
d="M102 440q0 237 116 479.5t321.5 401t459.5 158.5q85 0 146 -17t103.5 -45t86.5 -71q19 -19 36 -19q39 0 81 123h45q-68 -177 -131 -471h-45q10 88 10 154q0 94 -28 149q-43 75 -128 117.5t-188 42.5q-212 0 -369.5 -178t-241 -430t-83.5 -461q0 -184 87 -272.5t267 -88.5
q67 0 128 19t106 45q41 24 61.5 55t32.5 74l47 180q18 68 18 106q0 36 -17 54.5t-52.5 26t-102.5 10.5l11 41q99 -7 286 -7q146 0 215 7l-10 -41q-49 -4 -73 -16.5t-40.5 -46.5t-37.5 -113l-109 -406h-41q6 32 6 54q0 63 -31 63q-13 0 -27.5 -6.5t-49.5 -28.5
q-86 -55 -169.5 -83t-179.5 -28q-250 0 -383 122t-133 347z" />
    <glyph glyph-name="H" unicode="H" horiz-adv-x="1546" 
d="M-68 0l11 41q72 3 108 16t57.5 48.5t41.5 111.5l270 1016q17 65 17 98q0 31 -14 47t-42.5 22.5t-81.5 8.5l10 41q84 -6 260 -6q164 0 262 6l-10 -41q-75 -3 -111.5 -16t-58 -48t-41.5 -112l-128 -483h657l129 483q18 63 18 98q0 31 -14 47t-43 22.5t-82 8.5l10 41
q93 -6 258 -6q175 0 264 6l-10 -41q-75 -3 -111.5 -16t-58 -48t-41.5 -112l-270 -1016q-18 -70 -18 -100t13.5 -45.5t42.5 -22t83 -8.5l-9 -41q-86 6 -262 6q-164 0 -260 -6l8 41q74 3 111 16t58.5 48t41.5 112l131 492h-657l-131 -492q-17 -66 -17 -99q0 -30 13.5 -46
t42.5 -22.5t82 -8.5l-8 -41q-96 6 -260 6q-171 0 -261 -6z" />
    <glyph glyph-name="I" unicode="I" horiz-adv-x="698" 
d="M-68 0l11 41q72 3 108 16t57.5 48.5t41.5 111.5l270 1016q17 65 17 98q0 31 -14 47t-42.5 22.5t-81.5 8.5l10 41q84 -6 260 -6q165 0 262 6l-10 -41q-75 -3 -111.5 -16t-58 -48t-41.5 -112l-270 -1016q-17 -66 -17 -99q0 -30 13.5 -46t42.5 -22.5t82 -8.5l-8 -41
q-96 6 -260 6q-171 0 -261 -6z" />
    <glyph glyph-name="J" unicode="J" horiz-adv-x="1303" 
d="M92 -268q0 29 14.5 55.5t40.5 43.5t58 17q37 0 61.5 -24.5t24.5 -60.5q0 -34 -23 -61.5t-59 -43.5q30 -10 72 -10q132 0 196.5 129.5t105.5 295l56 224.5l61 240q23 91 57 172h-272l7 41h283q59 129 143.5 234.5t183.5 190.5t235 183q-237 -123 -405 -123
q-99 0 -200.5 38.5t-160.5 57.5t-143 19q-68 0 -102 -36q-31 -33 -31 -90v-10q1 -60 40 -97.5t111 -51.5l-6 -41q-93 16 -157.5 73t-67.5 165v14q0 65 25 116q28 57 83 89t130 32t134 -27.5t177 -109.5t227 -82q66 0 122.5 11t107 29t133.5 52q77 120 127 120q14 0 28 -11
q13 -11 13 -25q0 -50 -150 -106q-287 -192 -426 -614h203l-6 -41h-210l-22 -80l-127 -496q-58 -229 -179.5 -373.5t-303.5 -144.5q-96 0 -152.5 30t-56.5 87z" />
    <glyph glyph-name="K" unicode="K" horiz-adv-x="1382" 
d="M-68 0l11 41q72 3 108 16t57.5 48.5t41.5 111.5l270 1016q17 65 17 98q0 31 -14 47t-42.5 22.5t-81.5 8.5l10 41q84 -6 260 -6q164 0 262 6l-10 -41q-75 -3 -111.5 -16t-58 -48t-41.5 -112l-270 -1016q-17 -66 -17 -99q0 -30 13.5 -46t42.5 -22.5t82 -8.5l-8 -41
q-96 6 -260 6q-171 0 -261 -6zM535 756q0 41 61 41q42 0 125 -21q148 18 219 119t137 293t127 244q61 47 123 47q63 0 92 -30.5t29 -79.5q0 -27 -12.5 -60.5t-39 -57.5t-67.5 -24q-40 0 -60 24t-20 58q0 29 19 64.5t47 62.5h-6q-41 -2 -74 -29q-53 -48 -118 -232.5
t-137 -292t-224 -125.5q74 -17 118 -42.5t70 -86.5t26 -173l-1 -35l-8 -232l-1 -24q0 -40 13 -60t49 -20q52 0 87 38t65 122l34 104h41l-53 -158q-38 -112 -99.5 -165.5t-150.5 -53.5q-173 0 -173 203q0 23 1 35l14 231q3 43 3 79q0 91 -18 136.5t-57 78.5q-72 -19 -118 -19
q-63 0 -63 41z" />
    <glyph glyph-name="L" unicode="L" horiz-adv-x="1200" 
d="M-72 0l11 41q74 3 110 16t58 48t43 112l272 1016q18 65 18 100q0 30 -13.5 45.5t-42 22t-81.5 8.5l10 41q87 -6 262 -6q165 0 261 6l-11 -41q-75 -3 -111.5 -16t-58.5 -48t-43 -112l-272 -1016q-18 -64 -18 -99q0 -30 14 -45t43 -20.5t82 -5.5h149q128 0 204 36
t127.5 115.5t107.5 231.5h47q-13 -34 -52 -168q-30 -110 -55 -262q-139 6 -469 6q-393 0 -592 -6z" />
    <glyph glyph-name="M" unicode="M" horiz-adv-x="1778" 
d="M-70 0l11 41q72 3 110.5 20.5t61 57.5t43.5 119l266 995q17 65 17 98q0 31 -14 47t-42.5 22.5t-81.5 8.5l10 41q65 -6 183 -6q109 0 180 6l112 -1214l770 1208h99q157 0 256 6l-10 -41q-75 -3 -111.5 -16t-58 -48t-41.5 -112l-271 -1016q-17 -65 -17 -98q0 -31 14 -47
t42.5 -22.5t81.5 -8.5l-8 -41q-96 6 -254 6q-180 0 -266 -6l8 41q75 3 111.5 16t58 48t41.5 112l297 1104l-850 -1331h-45l-139 1347l-291 -1099q-18 -70 -18 -103q0 -50 34.5 -70.5t120.5 -23.5l-10 -41q-70 6 -207 6q-122 0 -193 -6z" />
    <glyph glyph-name="N" unicode="N" horiz-adv-x="1577" 
d="M-147 -45q0 35 14 68.5t41 55t65 21.5q42 0 60 -24t18 -56q0 -33 -18.5 -67.5t-46.5 -61.5h6q106 4 170 107q78 123 161.5 444.5t182.5 835.5q4 24 4 46q0 34 -14.5 51.5t-47.5 24.5t-96 9l10 41q66 -6 183 -6q96 0 166 6l387 -1132q89 397 173 683t171 412
q90 131 221 131q66 0 94.5 -29t28.5 -75q0 -36 -14 -70t-41.5 -56t-65.5 -22q-41 0 -59.5 24t-18.5 56q0 33 19 67.5t47 61.5h-6q-100 -3 -168 -104q-91 -136 -189 -477t-223 -930h-45l-467 1319q-101 -516 -190 -870t-170 -462q-47 -60 -96.5 -94.5t-123.5 -34.5
q-122 0 -122 107z" />
    <glyph glyph-name="O" unicode="O" horiz-adv-x="1493" 
d="M111 463q0 232 109 469t304.5 392t440.5 155q151 0 259.5 -58t166 -169t57.5 -267q0 -231 -110 -467.5t-306 -391.5t-440 -155q-151 0 -259 58t-165 168.5t-57 265.5zM328 436q0 -132 35.5 -228.5t99.5 -148t147 -51.5q155 0 298.5 147.5t232 381.5t88.5 477
q0 132 -36 228.5t-100 148t-147 51.5q-154 0 -297.5 -147.5t-232 -381.5t-88.5 -477z" />
    <glyph glyph-name="P" unicode="P" horiz-adv-x="1206" 
d="M-68 0l9 41q74 3 110.5 16t58.5 48t42 112l270 1016q18 65 18 98q0 42 -30.5 59.5t-108.5 18.5l10 41q84 -6 252 -6q49 0 148.5 2t150.5 2q201 0 304.5 -82.5t103.5 -226.5q0 -160 -97.5 -286.5t-273.5 -198.5t-401 -72h-61l-97 -365q-20 -78 -20 -103q0 -38 30.5 -54.5
t110.5 -18.5l-8 -41q-96 6 -254 6q-180 0 -267 -6zM448 623h70q287 0 416 149.5t129 398.5q0 122 -62 180t-198 58q-62 0 -96.5 -15t-56 -52t-40.5 -109z" />
    <glyph glyph-name="Q" unicode="Q" horiz-adv-x="1599" 
d="M-92 -16q0 53 32.5 94.5t89.5 64.5t128 23q72 0 136 -24t116.5 -60t129.5 -97q203 102 383.5 274t292 378t111.5 405q0 120 -40.5 210t-119.5 140t-190 50q-151 0 -270 -88t-184.5 -228t-65.5 -288q0 -147 63.5 -220t169.5 -73q90 0 164 49t116 124.5t42 149.5
q0 57 -15 82q-21 -42 -63.5 -67t-87.5 -25t-70.5 26.5t-25.5 69.5q0 54 40 89.5t101 35.5q73 0 117.5 -55t44.5 -145q0 -101 -56.5 -188.5t-157.5 -140t-227 -52.5q-115 0 -197 45t-124.5 126t-42.5 187q0 175 109.5 318t286 224t368.5 81q162 0 281.5 -51t183 -146.5
t63.5 -226.5q0 -207 -142.5 -419t-365.5 -388t-460 -289q80 -63 149 -106t157.5 -71t194.5 -28q102 0 175.5 31.5t119.5 108.5q-29 -13 -63 -13q-47 0 -74 28t-27 71q0 31 16 59.5t43.5 45.5t61.5 17q45 0 73.5 -31t28.5 -85q0 -90 -79.5 -176.5t-202 -140.5t-242.5 -54
q-100 0 -186.5 39t-155 96.5t-148.5 142.5q-171 -61 -292 -61q-101 0 -157 40.5t-56 111.5zM-53 -12q0 -121 196 -121q103 0 246 52q-66 70 -108.5 109.5t-89.5 66t-95 26.5q-37 0 -71.5 -16t-56 -46.5t-21.5 -70.5z" />
    <glyph glyph-name="R" unicode="R" horiz-adv-x="1360" 
d="M-68 0l9 41q74 3 110.5 16t58.5 48t42 112l270 1016q18 65 18 96q0 43 -31 61t-108 19l10 41q84 -6 252 -6q49 0 148.5 2t150.5 2q201 0 304.5 -77.5t103.5 -211.5q0 -111 -65.5 -204.5t-186.5 -158t-283 -91.5q34 -4 72 -11q80 -15 128.5 -39.5t73.5 -69.5t25 -118
q0 -13 -2 -43l-16 -209q-2 -28 -2 -42q0 -126 64 -126q36 0 63.5 41.5t60.5 130.5l10 29h48l-9 -27q-36 -129 -92.5 -189.5t-150.5 -60.5q-61 0 -103 24.5t-62.5 65.5t-20.5 89l1 18l17 229q3 34 3 64q0 87 -31 134.5t-112 69.5t-235 23l-125 -471q-19 -71 -19 -100
q0 -41 30.5 -58t109.5 -18l-8 -41q-96 6 -254 6q-180 0 -267 -6zM476 729h63q276 0 400 120.5t124 321.5q0 122 -62 180t-198 58q-62 0 -96.5 -15t-56 -52t-40.5 -109z" />
    <glyph glyph-name="S" unicode="S" horiz-adv-x="1135" 
d="M-37 -14q69 163 139 491h41q-11 -61 -15 -95q-3 -27 -3 -56v-15q13 -299 334 -299q139 0 220 63.5t81 192.5q0 168 -156.5 316.5t-236.5 242t-80 252.5q0 126 64 216.5t167.5 137t218.5 46.5q84 0 145.5 -20.5t121.5 -65.5q47 -37 67 -37q17 0 32 25t36 83h41
q-74 -180 -121 -417h-41q12 57 12 116q0 78 -30.5 140.5t-96 99.5t-164.5 37q-129 0 -207.5 -66t-78.5 -194q0 -151 171.5 -310.5t259 -257t87.5 -239.5q0 -134 -77 -224.5t-195.5 -134t-245.5 -43.5q-108 0 -173.5 26.5t-117.5 68.5q-39 30 -74 30q-24 0 -41 -24t-43 -86
h-41z" />
    <glyph glyph-name="T" unicode="T" horiz-adv-x="1350" 
d="M203 1251q0 107 108 160q96 47 275 47q81 0 156 -7t237.5 -28.5t280.5 -21.5q91 0 152.5 10t110.5 35q-50 51 -50 115q0 46 25.5 79t74.5 33q45 0 68.5 -28t23.5 -70q0 -45 -26.5 -83t-69.5 -65q-109 -67 -324 -67q-91 0 -210 14l-302 -1136q-18 -64 -18 -104
q0 -35 17 -54.5t53.5 -28t101.5 -10.5l-8 -41q-108 6 -306 6q-200 0 -299 -6l9 41q87 3 134.5 21t74.5 58t51 118l309 1160q-166 23 -264 23q-178 0 -230 -35q16 -21 26.5 -54.5t10.5 -63.5q0 -47 -26 -83t-76 -36q-44 0 -67 27.5t-23 74.5z" />
    <glyph glyph-name="U" unicode="U" horiz-adv-x="1397" 
d="M170 290q0 106 51 300l170 643q17 65 17 98q0 31 -13.5 47t-42.5 22.5t-82 8.5l13 41q82 -6 264 -6q157 0 256 6l-12 -41q-75 -3 -112 -16t-58 -48t-41 -112l-181 -678q-45 -177 -45 -277q0 -113 55.5 -174t186.5 -61q215 0 338.5 139.5t189.5 390.5l168 639q14 56 14 91
q0 56 -35 79t-116 27l10 41q70 -6 207 -6q123 0 193 6l-11 -41q-72 -3 -111.5 -21t-63 -58t-42.5 -118l-159 -616q-75 -285 -201 -434q-75 -88 -185 -139.5t-235 -51.5q-219 0 -315 111q-72 80 -72 208z" />
    <glyph glyph-name="V" unicode="V" 
d="M197 1409l10 41q80 -6 221 -6q156 0 246 6l-10 -41q-64 -3 -98 -11.5t-52 -33t-18 -74.5q0 -13 4 -53l116 -989l568 870q88 135 88 203q0 45 -37.5 65.5t-114.5 22.5l10 41q114 -6 234 -6q91 0 156 6l-11 -41q-109 -23 -206 -178l-807 -1241h-31l-162 1288q-8 67 -39 98
t-67 33z" />
    <glyph glyph-name="W" unicode="W" horiz-adv-x="1847" 
d="M176 1409l8 41q84 -6 203 -6q148 0 221 6l-8 -41q-63 -4 -90.5 -28.5t-27.5 -90.5q0 -23 3 -53l115 -977l429 726l-46 292q-20 127 -92 131l8 41q73 -6 182 -6q177 0 262 6l-8 -41q-62 -3 -95.5 -12t-49.5 -31t-16 -64q0 -27 6 -65l146 -931l400 812q68 136 68 200
q0 50 -38 69.5t-120 21.5l11 41q112 -6 233 -6q92 0 156 6l-11 -41q-121 -25 -194 -178l-612 -1241h-33l-147 933l-556 -933h-32l-162 1288q-18 127 -113 131z" />
    <glyph glyph-name="X" unicode="X" horiz-adv-x="1432" 
d="M-69 77q0 30 13 64t40.5 58t68.5 24q40 0 59 -22.5t19 -55.5q0 -30 -18 -67t-47 -64h8q69 3 129 43q106 70 234 230t241 393l-53 453q-13 108 -50 170.5t-112 62.5q-60 0 -97 -37.5t-67 -122.5l-35 -104h-41l53 158q39 112 100.5 165.5t149.5 53.5q134 0 192.5 -89.5
t76.5 -230.5l37 -316q80 173 188.5 329.5t204.5 234.5q93 72 188 72q63 0 92.5 -29.5t29.5 -76.5q0 -30 -13 -64t-40.5 -58t-68.5 -24q-39 0 -58.5 22.5t-19.5 55.5q0 31 18.5 67.5t47.5 63.5h-6q-71 0 -131 -43q-92 -67 -206 -226t-219 -386l54 -464q12 -108 49 -170.5
t113 -62.5q60 0 97 37.5t67 122.5l34 104h41l-53 -158q-38 -112 -99.5 -165.5t-150.5 -53.5q-134 0 -192.5 90t-75.5 230l-37 322q-54 -112 -130 -224t-158.5 -203t-155.5 -143q-95 -72 -189 -72q-63 0 -92.5 29.5t-29.5 76.5z" />
    <glyph glyph-name="Y" unicode="Y" horiz-adv-x="1372" 
d="M199 1102l67 198q22 64 46 102t61 57.5t94 19.5q108 0 174.5 -88t103.5 -245.5t64 -408.5q148 372 383 609q133 133 242 133q60 0 87 -31.5t27 -78.5q0 -30 -13 -63t-40.5 -56t-67.5 -23q-77 0 -77 81q0 33 18 67t47 61h-6q-55 -3 -113 -45q-108 -78 -231.5 -251.5
t-236.5 -447.5l-119 -475q-17 -66 -17 -99q0 -30 13.5 -46t42 -22.5t81.5 -8.5l-10 -41q-92 6 -254 6q-180 0 -268 -6l10 41q74 3 111 16t59 48.5t41 111.5l120 478q-73 671 -239 671q-35 0 -58 -22t-40 -74l-57 -168h-45z" />
    <glyph glyph-name="Z" unicode="Z" horiz-adv-x="1335" 
d="M-71 17q0 28 38 62.5t115 63.5l576 566h-332l14 41h359l571 561q-188 -111 -355 -111q-87 0 -174.5 38.5t-139 57.5t-124.5 19q-68 0 -103.5 -35.5t-35.5 -99.5q0 -120 147 -150l-8 -41q-92 17 -154.5 73.5t-62.5 164.5q0 73 30 130t86.5 89.5t131.5 32.5
q67 0 118.5 -27.5t152.5 -109.5t198 -82q79 0 142 21t161 71q37 53 77.5 86t72.5 33q16 0 30 -11q12 -10 12 -27q0 -28 -38 -62.5t-115 -63.5l-567 -557h311l-16 -41h-336l-580 -570q188 111 354 111q87 0 175 -38.5t139.5 -57.5t124.5 -19q68 0 103.5 35.5t35.5 99.5
q0 120 -148 150l9 41q92 -17 154.5 -73.5t62.5 -164.5q0 -73 -30 -130t-86.5 -89.5t-131.5 -32.5q-68 0 -119 28t-152.5 109.5t-197.5 81.5q-79 0 -142.5 -21.5t-160.5 -70.5q-37 -53 -78.5 -86t-72.5 -33q-16 0 -29 11q-12 10 -12 27z" />
    <glyph glyph-name="bracketleft" unicode="[" horiz-adv-x="614" 
d="M-50 -371l486 1952h348l-8 -39h-166l-469 -1874h166l-8 -39h-349z" />
    <glyph glyph-name="backslash" unicode="\" horiz-adv-x="1008" 
d="M270 1479h64l467 -1508h-68z" />
    <glyph glyph-name="bracketright" unicode="]" horiz-adv-x="614" 
d="M-170 -371l8 39h166l469 1874h-166l8 39h349l-486 -1952h-348z" />
    <glyph glyph-name="asciicircum" unicode="^" horiz-adv-x="1096" 
d="M174 688q147 63 277 169t211 224h36q18 -118 91.5 -224t187.5 -169l-25 -29q-111 45 -209.5 112t-150.5 134q-78 -68 -189 -134.5t-221 -111.5z" />
    <glyph glyph-name="underscore" unicode="_" horiz-adv-x="1524" 
d="M-103 -327l21 82h1231l-23 -82h-1229z" />
    <glyph glyph-name="grave" unicode="`" horiz-adv-x="457" 
d="M112 1671q0 41 33 58q15 6 32 6q53 0 89 -64q25 -43 54 -119l58 -147.5t75 -165.5l-27 -12q-51 72 -93 125.5l-107.5 131.5t-92.5 122q-21 34 -21 65z" />
    <glyph glyph-name="a" unicode="a" 
d="M-170 0v41q90 23 223 190l824 1029h30l127 -1088q9 -68 37 -98.5t64 -32.5l-11 -41q-82 6 -223 6q-165 0 -246 -6l11 41q63 3 101 14.5t58 39t20 78.5q0 18 -3 40l-31 254h-519l-140 -174q-81 -99 -81 -164q0 -78 124 -88v-41q-61 6 -187 6q-125 0 -178 -6zM325 508h481
l-63 519z" />
    <glyph glyph-name="b" unicode="b" horiz-adv-x="1255" 
d="M-66 0l9 41q74 3 110.5 16t58.5 48t42 112l217 811q18 65 18 98q0 42 -31 60t-108 18l10 41q83 -6 244 -6q46 0 141 2t148 2q190 0 287.5 -59t97.5 -162q0 -85 -59 -156.5t-154 -122t-207 -79.5q177 -25 256.5 -96.5t79.5 -176.5q0 -109 -77 -198.5t-205.5 -141
t-274.5 -51.5q-49 0 -163 3t-190 3q-163 0 -250 -6zM325 116q0 -38 27.5 -53.5t96.5 -15.5q172 0 268.5 46.5t134 128t37.5 200.5q0 211 -293 211h-142l-110 -416q-19 -73 -19 -101zM463 668h108q120 0 212 46.5t142 124.5t50 169q0 99 -53 147.5t-168 48.5q-63 0 -97 -11.5
t-54 -42t-36 -91.5z" />
    <glyph glyph-name="c" unicode="c" horiz-adv-x="1362" 
d="M86 401q0 207 105 410t296.5 333t438.5 130q112 0 180.5 -35.5t122.5 -97.5q15 -18 29 -18q38 0 83 122h45q-64 -189 -133 -471h-45q13 101 13 158q0 78 -33 145q-37 78 -111.5 119t-169.5 41q-162 0 -304 -135.5t-227 -341t-85 -400.5q0 -169 77 -260.5t212 -91.5
q94 0 194 42t174 118q54 56 93 126t92 198h45q-97 -355 -121 -492h-45q6 44 6 70q0 52 -26 52q-16 0 -42 -18q-93 -65 -182.5 -99t-206.5 -34q-149 0 -255.5 50t-163 146.5t-56.5 233.5z" />
    <glyph glyph-name="d" unicode="d" horiz-adv-x="1483" 
d="M-57 0l6 41q70 3 105.5 16t57.5 48.5t42 111.5l215 811q19 67 19 100q0 42 -30.5 58.5t-107.5 17.5l6 41q110 -7 200 -7l50 1q282 6 309 6q288 0 433 -115t145 -337q0 -225 -113 -406t-321 -284t-484 -103q-28 0 -133.5 3t-153.5 3q-165 0 -245 -6zM326 111
q0 -40 27.5 -57t97.5 -17q255 0 421.5 101.5t245 282t78.5 423.5q0 185 -104 274.5t-334 89.5q-64 0 -100 -14.5t-58 -51.5t-41 -110l-215 -819q-18 -69 -18 -102z" />
    <glyph glyph-name="e" unicode="e" horiz-adv-x="1268" 
d="M-70 0l11 41q74 3 110.5 16t58.5 48t42 112l219 811q17 66 17 100q0 30 -13.5 45.5t-42 22t-80.5 8.5l10 41q193 -6 572 -6q309 0 444 6q-30 -75 -74 -221q-29 -119 -35 -147h-47q19 93 19 149q0 63 -22 100.5t-70 54.5t-127 17h-150q-74 0 -110.5 -11.5t-58.5 -46.5
t-42 -112l-103 -381h191q65 0 110.5 37t70.5 83t51 110h47q-52 -157 -74 -250l-16.5 -63t-20 -83t-18.5 -104h-47q9 58 9 94q0 64 -31.5 99.5t-113.5 35.5h-169l-105 -389q-17 -66 -17 -99q0 -30 13.5 -45t42.5 -20.5t82 -5.5h149q112 0 187.5 34.5t131.5 112.5t107 216h47
q-35 -108 -49 -168q-24 -81 -51 -242q-143 6 -481 6q-379 0 -574 -6z" />
    <glyph glyph-name="f" unicode="f" horiz-adv-x="1184" 
d="M-70 0l11 41q74 3 110.5 16t58.5 48t42 112l219 811q17 66 17 100q0 30 -13.5 45.5t-42 22t-80.5 8.5l10 41q193 -6 572 -6q315 0 450 6q-30 -75 -74 -221q-29 -117 -34 -147h-48q18 86 18 145q0 95 -52 135.5t-172 40.5h-150q-74 0 -110.5 -11.5t-58.5 -46.5t-42 -112
l-103 -381h212q65 0 110 37t70 83t51 110h47q-45 -136 -74 -250q-6 -24 -23 -87.5t-32 -162.5h-47q8 64 8 96q0 63 -26.5 98t-96.5 35h-210l-105 -389q-15 -57 -15 -90q0 -34 17 -52t53.5 -25t104.5 -9l-10 -41q-105 6 -299 6q-173 0 -263 -6z" />
    <glyph glyph-name="g" unicode="g" horiz-adv-x="1427" 
d="M86 399q0 201 102 404.5t293.5 337t444.5 133.5q84 0 145 -17t104 -45t87 -71q19 -19 35 -19q39 0 81 123h45q-66 -193 -131 -471h-45q10 88 10 154q0 94 -28 149q-43 75 -127.5 117.5t-188.5 42.5q-209 0 -353 -154t-214 -367.5t-70 -383.5q0 -163 87.5 -241.5
t267.5 -78.5q61 0 129.5 16t123 52.5t70.5 95.5l37 137q19 71 19 106q0 36 -17 54t-52.5 26t-102.5 11l8 41q108 -6 289 -6q138 0 213 6l-9 -41q-51 -3 -75.5 -15.5t-41 -47t-38.5 -113.5l-90 -334h-41q6 28 6 44q0 52 -31 52q-33 0 -108 -47q-68 -41 -143 -59.5t-175 -18.5
q-251 0 -383.5 111t-132.5 317z" />
    <glyph glyph-name="h" unicode="h" horiz-adv-x="1552" 
d="M-63 0l10 41q72 3 108 16t57.5 48.5t41.5 111.5l215 811q17 65 17 98q0 31 -14 47t-42.5 22.5t-81.5 8.5l10 41q82 -6 260 -6q165 0 262 6l-10 -41q-75 -3 -111.5 -16t-58 -48t-41.5 -112l-101 -381h658l101 381q17 65 17 98q0 31 -14 47t-42.5 22.5t-81.5 8.5l10 41
q91 -6 258 -6q175 0 264 6l-10 -41q-75 -3 -111.5 -16t-58 -48t-41.5 -112l-215 -811q-17 -66 -17 -99q0 -30 13.5 -46t42.5 -22.5t82 -8.5l-8 -41q-87 6 -263 6q-164 0 -260 -6l9 41q74 3 110.5 16t58 48t41.5 112l104 389h-658l-103 -389q-17 -66 -17 -99q0 -30 13.5 -46
t42.5 -22.5t82 -8.5l-8 -41q-96 6 -260 6q-172 0 -260 -6z" />
    <glyph glyph-name="i" unicode="i" horiz-adv-x="705" 
d="M-63 0l10 41q72 3 108 16t57.5 48.5t41.5 111.5l215 811q17 65 17 98q0 31 -14 47t-42.5 22.5t-81.5 8.5l10 41q82 -6 260 -6q165 0 262 6l-10 -41q-75 -3 -111.5 -16t-58 -48t-41.5 -112l-215 -811q-17 -66 -17 -99q0 -30 13.5 -46t42.5 -22.5t82 -8.5l-8 -41
q-96 6 -260 6q-172 0 -260 -6z" />
    <glyph glyph-name="j" unicode="j" horiz-adv-x="1260" 
d="M43 -268q0 29 14.5 55.5t40.5 43.5t58 17q37 0 61.5 -24.5t24.5 -60.5q0 -34 -23 -61.5t-59 -43.5q30 -10 71 -10q107 0 168 56t93.5 142t99.5 308l67 225q16 55 35 104h-258l6 41h267q56 140 128 242t150 175.5t219 191.5q-95 -58 -179.5 -90.5t-164.5 -32.5
q-95 0 -192 38t-154 57t-137 19q-68 0 -102 -36q-31 -32 -31 -89v-10q3 -121 151 -149l-6 -41q-93 16 -157.5 72.5t-67.5 164.5v14q0 65 25 116q28 57 82.5 89.5t129.5 32.5q73 0 130 -28t170.5 -109.5t218.5 -81.5q78 0 140.5 21.5t160.5 70.5q77 120 128 120q14 0 27 -11
t13 -25q0 -49 -150 -106q-87 -71 -148 -158.5t-105.5 -194t-92.5 -262.5h205l-6 -41h-211l-4 -12l-144 -481q-32 -106 -97 -191t-163.5 -134.5t-222.5 -49.5q-96 0 -152.5 30t-56.5 87z" />
    <glyph glyph-name="k" unicode="k" horiz-adv-x="1380" 
d="M-63 0l10 41q72 3 108 16t57.5 48t41.5 112l215 811q17 65 17 98q0 31 -14 47t-42.5 22.5t-81.5 8.5l10 41q82 -6 260 -6q164 0 262 6l-10 -41q-75 -3 -111.5 -16t-58 -48t-41.5 -112l-215 -811q-17 -66 -17 -99q0 -30 13.5 -46t42.5 -22.5t82 -8.5l-8 -41q-96 6 -260 6
q-172 0 -260 -6zM508 647q0 39 64 39q45 0 127 -20q129 11 189 95.5t116 251.5t112 214q60 47 123 47t92 -30t29 -80q0 -27 -12.5 -60.5t-39 -57.5t-67.5 -24t-60.5 24t-19.5 58q0 29 19 64.5t47 62.5h-6q-25 0 -40.5 -6.5t-33.5 -22.5q-44 -42 -100.5 -199t-117 -248.5
t-186.5 -106.5q109 -24 165 -86t56 -186q0 -23 -1 -36l-5 -176q-1 -37 19 -58.5t49 -21.5q52 0 87 38t65 122l34 104h41l-53 -158q-38 -112 -99.5 -165.5t-150.5 -53.5q-86 0 -130 50t-44 145q0 13 2 43l13 151q2 17 2 51q0 82 -23.5 141.5t-64.5 78.5q-81 -21 -131 -21
q-66 0 -66 37z" />
    <glyph glyph-name="l" unicode="l" horiz-adv-x="1217" 
d="M-70 0l11 41q74 3 110.5 16t58.5 48t42 112l219 811q17 66 17 100q0 30 -13.5 45.5t-42 22t-80.5 8.5l10 41q82 -6 260 -6q165 0 262 6l-10 -41q-75 -3 -112 -16t-59 -48t-42 -112l-219 -811q-17 -66 -17 -99q0 -30 13.5 -45t42.5 -20.5t82 -5.5h129q155 0 270.5 89
t190.5 294h47q-43 -125 -58 -188q-20 -67 -51 -242q-143 6 -487 6q-379 0 -574 -6z" />
    <glyph glyph-name="m" unicode="m" horiz-adv-x="1774" 
d="M-74 0l11 41q72 3 111.5 20.5t62.5 57.5t45 119l217 819q17 65 17 98q0 31 -14 47t-42.5 22.5t-81.5 8.5l10 41q64 -6 182 -6q101 0 172 6l162 -1056l729 1050h99q157 0 256 6l-11 -41q-75 -3 -111.5 -16t-58 -48t-41.5 -112l-223 -840q-17 -65 -17 -98q0 -31 14 -47
t42.5 -22.5t81.5 -8.5l-8 -41q-96 6 -254 6q-180 0 -266 -6l8 41q75 3 111 16t57.5 48t42.5 112l248 925l-801 -1152h-45l-188 1168l-242 -920q-18 -70 -18 -104q0 -50 34 -70t119 -23l-10 -41q-75 6 -207 6q-126 0 -193 -6z" />
    <glyph glyph-name="n" unicode="n" horiz-adv-x="1632" 
d="M-150 -45q0 36 14 69t41.5 54.5t65.5 21.5q42 0 60 -24t18 -56q0 -33 -18.5 -67.5t-46.5 -61.5h4q100 4 172 107q145 216 348 1111q2 39 -11.5 58.5t-46.5 26.5t-100 10l10 41q65 -6 183 -6q96 0 166 6l388 -964q89 331 174.5 575.5t168.5 351.5q96 131 221 131
q66 0 94.5 -29t28.5 -75q0 -36 -14 -70t-41.5 -56t-65.5 -22q-41 0 -59.5 24.5t-18.5 55.5q0 34 19 69.5t47 59.5h-6q-53 -1 -92.5 -28t-75.5 -76q-91 -128 -192 -421t-220 -781h-45l-466 1124q-221 -962 -361 -1137q-33 -40 -61.5 -66.5t-68 -44.5t-90.5 -18
q-123 0 -123 107z" />
    <glyph glyph-name="o" unicode="o" horiz-adv-x="1499" 
d="M94 465q0 185 104.5 374t291 312t419.5 123q151 0 264 -54.5t176.5 -165t63.5 -274.5q0 -185 -104.5 -374t-291 -312t-419.5 -123q-151 0 -264 54.5t-176.5 165t-63.5 274.5zM313 436q0 -222 81 -325t222 -103q163 0 295.5 116.5t207.5 302t75 382.5q0 222 -81 325
t-222 103q-163 0 -295.5 -116.5t-207.5 -302t-75 -382.5z" />
    <glyph glyph-name="p" unicode="p" horiz-adv-x="1192" 
d="M-66 0l9 41q74 3 110.5 16t58.5 48t42 112l215 811q14 65 14 90q0 43 -29 62.5t-106 23.5l10 41q82 -6 252 -6q49 0 148 2t151 2q201 0 304.5 -71.5t103.5 -196.5q0 -135 -95 -243.5t-266.5 -170t-390.5 -61.5h-48l-75 -283q-17 -70 -17 -98q0 -39 29.5 -56.5
t108.5 -21.5l-8 -41q-96 6 -254 6q-180 0 -267 -6zM428 541h57q277 0 401 127t124 340q0 100 -62 148t-198 48q-62 0 -96.5 -15t-56 -52t-40.5 -109z" />
    <glyph glyph-name="q" unicode="q" horiz-adv-x="1591" 
d="M-102 -23q0 82 66 125t175 43q75 0 141.5 -24t122 -59.5t134.5 -95.5q195 85 364 223t272 311t103 354q0 115 -40.5 201.5t-119 134t-188.5 47.5q-141 0 -261 -69t-190.5 -189.5t-70.5 -265.5q0 -135 65 -203t174 -68q73 0 146 36.5t120 97.5t47 131q0 53 -16 81
q-22 -43 -62.5 -68.5t-84.5 -25.5q-45 0 -71 27t-26 70q0 53 40 88.5t98 35.5q75 0 120 -52t45 -138q0 -100 -60.5 -175t-158.5 -115t-207 -40q-126 0 -210.5 37.5t-126 104t-41.5 155.5q0 176 116 308.5t291.5 203t345.5 70.5q156 0 278 -50.5t191.5 -147t69.5 -228.5
q0 -182 -134 -358t-344 -318t-439 -233q77 -58 141 -96.5t143.5 -63.5t171.5 -25q118 0 197.5 23t142.5 82q-37 -19 -74 -19q-46 0 -73 29t-27 72q0 31 16 58.5t43.5 44.5t61.5 17q46 0 74 -31t28 -83q0 -97 -77 -173t-195 -117.5t-234 -41.5q-110 0 -202.5 37t-164 92.5
t-150.5 134.5q-162 -47 -279 -47q-104 0 -160.5 39t-56.5 106zM-66 -16q0 -59 54.5 -88t124.5 -29q120 0 255 38q-69 71 -109 107.5t-86 62t-93 25.5q-60 0 -103 -30.5t-43 -85.5z" />
    <glyph glyph-name="r" unicode="r" horiz-adv-x="1325" 
d="M-66 0l9 41q74 3 110.5 16t58.5 48t42 112l217 811q14 65 14 90q0 43 -29 62.5t-106 23.5l10 41q83 -6 252 -6q49 0 148 2t151 2q201 0 304.5 -66t103.5 -182q0 -103 -64 -184t-181.5 -134.5t-277.5 -75.5l45 -7q81 -15 131 -41.5t75 -74t25 -124.5q0 -20 -1 -30l-6 -109
q-2 -36 -2 -52q0 -57 14.5 -86.5t49.5 -29.5q36 0 63.5 41.5t60.5 130.5l10 29h47l-8 -27q-36 -127 -96.5 -188.5t-155.5 -61.5q-94 0 -136 57q-38 51 -39 123q0 8 1 17l8 129q2 40 2 57q0 82 -26 129.5t-91.5 72t-188.5 30.5h-11h-26l-99 -369q-17 -70 -17 -98
q0 -39 29.5 -56.5t108.5 -21.5l-8 -41q-96 6 -254 6q-180 0 -267 -6zM452 627h35q196 0 310.5 39t164.5 121.5t50 220.5q0 100 -62 148t-198 48q-62 0 -96.5 -15t-56 -52t-40.5 -109z" />
    <glyph glyph-name="s" unicode="s" horiz-adv-x="1153" 
d="M-35 -14q69 163 139 491h41q-18 -104 -18 -151q0 -150 82.5 -232t255.5 -82q138 0 217.5 54t79.5 165q0 71 -31.5 127t-80 98t-126.5 95q-99 68 -151.5 110.5t-89.5 105.5t-37 148q0 113 64 194.5t168.5 123t223.5 41.5q85 0 142 -21t119 -65q48 -37 67 -37q17 0 32 25
t36 84h41q-74 -184 -121 -418h-41q12 59 12 114q0 124 -72 201.5t-223 77.5q-124 0 -203 -55.5t-79 -161.5q0 -69 34 -124t88 -98.5t144 -101.5q103 -67 160 -112.5t96 -108.5t39 -145q0 -117 -76.5 -197.5t-195.5 -120t-244 -39.5q-77 0 -132.5 14t-90 33.5t-70.5 47.5
q-40 30 -72 30q-26 0 -42 -23t-44 -87h-41z" />
    <glyph glyph-name="t" unicode="t" horiz-adv-x="1251" 
d="M158 1047q0 103 106 159q88 47 232 47q76 0 148 -7.5t225.5 -28.5t258.5 -21q76 0 127 10.5t101 34.5q-51 51 -51 115q0 46 25.5 79t74.5 33q45 0 68.5 -27.5t23.5 -68.5q0 -82 -94 -151q-60 -34 -125 -50t-158 -16q-76 0 -173 11l-269 -928q-19 -66 -19 -102t17 -56
t54 -29t101 -10l-8 -41q-106 6 -305 6q-200 0 -299 -6l8 41q89 3 135.5 19.5t74 56.5t50.5 121l277 954q-170 25 -258 25q-130 0 -193 -35q16 -22 26.5 -55.5t10.5 -63.5q0 -47 -26.5 -83t-75.5 -36q-43 0 -66.5 28t-23.5 75z" />
    <glyph glyph-name="u" unicode="u" horiz-adv-x="1399" 
d="M167 292q0 101 52 298l117 438q17 65 17 98q0 31 -14 47t-42.5 22.5t-81.5 8.5l12 41q84 -6 265 -6q157 0 256 6l-13 -41q-75 -3 -111.5 -16t-58 -48t-41.5 -112l-127 -473q-45 -177 -45 -277q0 -113 56 -174t186 -61q215 0 338.5 139.5t189.5 390.5l117 435q15 54 15 91
q0 55 -36 78t-116 27l10 41q74 -6 207 -6q125 0 192 6l-10 -41q-63 -3 -102.5 -21t-66.5 -59t-48 -116l-108 -412q-75 -285 -201 -434q-75 -88 -185 -139.5t-235 -51.5q-229 0 -315 111q-38 46 -55.5 96t-17.5 114z" />
    <glyph glyph-name="v" unicode="v" horiz-adv-x="1303" 
d="M168 1204l10 41q80 -6 221 -6q158 0 246 6l-10 -41q-63 -3 -97.5 -12t-52 -34.5t-17.5 -74.5q0 -22 3 -51l98 -811l557 697q116 144 116 211q0 70 -130 75l10 41q59 -6 226 -6q83 0 139 6l-10 -41q-61 -24 -107 -65t-121 -135l-809 -1014h-30l-136 1083q-8 67 -39 98
t-67 33z" />
    <glyph glyph-name="w" unicode="w" horiz-adv-x="1855" 
d="M147 1204l9 41q83 -6 202 -6q147 0 222 6l-9 -41q-63 -4 -90.5 -28.5t-27.5 -88.5q0 -27 4 -55l88 -769l424 716l-15 94q-19 127 -92 131l8 41q75 -6 183 -6q175 0 262 6l-8 -41q-62 -3 -96 -12t-50.5 -30.5t-16.5 -62.5q0 -31 7 -67l131 -770l385 633q93 153 93 225
q0 44 -31 63t-93 21l11 41q62 -6 186 -6q129 0 178 6l-10 -41q-63 -19 -112 -63t-107 -140l-619 -1011h-33l-150 926l-552 -926h-33l-135 1083q-17 127 -113 131z" />
    <glyph glyph-name="x" unicode="x" horiz-adv-x="1384" 
d="M-67 77q0 30 13 64t40.5 58t68.5 24q40 0 59 -22.5t19 -55.5q0 -30 -18 -67t-47 -64h6q73 3 131 43q92 60 205 194t217 328l-39 349q-13 108 -49.5 170.5t-112.5 62.5q-60 0 -97 -37.5t-67 -122.5l-35 -104h-41l54 158q38 112 99.5 165.5t149.5 53.5q135 0 194 -90.5
t75 -229.5l24 -215q78 148 169.5 273.5t172.5 189.5q91 72 189 72q63 0 92.5 -29t29.5 -76q0 -31 -13 -65t-40.5 -58t-68.5 -24q-40 0 -59 22.5t-19 55.5q0 30 18 67t47 64h-6q-68 -3 -131 -43q-80 -59 -179.5 -190.5t-194.5 -318.5l40 -362q13 -108 50 -170.5t112 -62.5
q60 0 97 37.5t67 122.5l35 104h41l-53 -158q-39 -112 -100.5 -165.5t-149.5 -53.5q-135 0 -194 90.5t-75 229.5l-25 221q-82 -144 -189 -272t-201 -197q-99 -72 -189 -72q-63 0 -92.5 29.5t-29.5 76.5z" />
    <glyph glyph-name="y" unicode="y" horiz-adv-x="1307" 
d="M164 897l67 199q22 64 46 101.5t61 57t94 19.5q85 0 136 -60t81 -170t62 -307l15 -100q143 310 349 512q55 54 118 89.5t124 35.5q60 0 87.5 -31.5t27.5 -78.5q0 -30 -13.5 -63t-40.5 -56t-67 -23q-78 0 -78 81q0 31 18.5 65.5t46.5 62.5h-6q-50 -3 -112 -45
q-103 -77 -220 -230.5t-222 -393.5l-89 -345q-17 -66 -17 -99q0 -30 13.5 -46t42.5 -22.5t82 -8.5l-10 -41q-93 6 -254 6q-179 0 -268 -6l10 41q74 3 111 16t59 48.5t41 111.5l97 376q-26 246 -70.5 407t-120.5 161q-36 0 -59 -22t-40 -74l-57 -168h-45z" />
    <glyph glyph-name="z" unicode="z" horiz-adv-x="1339" 
d="M-84 17q0 28 38 62.5t116 63.5l558 463h-233l15 41h268l553 459q-188 -111 -354 -111q-87 0 -175 38.5t-139.5 57.5t-124.5 19q-68 0 -103.5 -35.5t-35.5 -99.5q0 -120 147 -150l-8 -41q-92 17 -154.5 73.5t-62.5 164.5q0 73 30 130t86.5 89.5t131.5 32.5
q67 0 118.5 -27.5t152.5 -109.5t198 -82q55 0 102 11t90 29t111 52q37 53 78 86t72 33q16 0 30 -11q12 -10 12 -27q0 -28 -38 -62.5t-115 -63.5l-549 -455h238l-17 -41h-270l-563 -467q186 111 354 111q87 0 174.5 -38.5t139 -57.5t124.5 -19q69 0 104.5 35.5t35.5 99.5
q0 120 -148 150l8 41q93 -17 155 -73.5t62 -164.5q0 -73 -30 -130t-86 -89.5t-131 -32.5q-68 0 -119 28t-152.5 109.5t-197.5 81.5q-79 0 -142.5 -21.5t-160.5 -70.5q-37 -53 -78.5 -86t-73.5 -33q-16 0 -29 11q-12 10 -12 27z" />
    <glyph glyph-name="braceleft" unicode="{" horiz-adv-x="627" 
d="M52 -164q0 83 42 253q68 269 68 376q-1 62 -24.5 90t-71.5 31h-10l6 37h10q66 5 109.5 49.5t82.5 147t89 301.5q48 190 106.5 293t142 145.5t215.5 42.5l-10 -39q-72 -1 -111 -29t-74 -118t-85 -295q-43 -173 -108 -279.5t-141.5 -158.5t-170.5 -78q198 -60 198 -282
q0 -92 -36 -234q-63 -253 -60 -332q0 -59 27.5 -80t89.5 -23l-10 -39q-151 0 -212.5 57t-61.5 164z" />
    <glyph glyph-name="bar" unicode="|" horiz-adv-x="651" 
d="M305 -399v2156h82v-2156h-82z" />
    <glyph glyph-name="braceright" unicode="}" horiz-adv-x="627" 
d="M-188 -385l10 39q72 1 111 29t74 118t85 295q43 173 108 279.5t141.5 158.5t170.5 78q-198 60 -198 282q0 92 36 234q63 253 60 332q0 59 -27.5 80t-89.5 23l10 39q151 0 212.5 -57t61.5 -164q0 -83 -42 -253q-68 -269 -68 -376q1 -62 24.5 -90t71.5 -31h10l-6 -37h-10
q-66 -5 -109.5 -49.5t-82.5 -147t-89 -301.5q-48 -190 -106.5 -293t-142 -145.5t-215.5 -42.5z" />
    <glyph glyph-name="asciitilde" unicode="~" horiz-adv-x="1329" 
d="M139 537q47 102 136.5 160.5t201.5 58.5q71 0 125.5 -20.5t160 -80t200.5 -59.5q132 0 206 119l29 -10q-46 -103 -135.5 -161.5t-202.5 -58.5q-71 0 -125.5 20.5t-160 80t-199.5 59.5q-133 0 -207 -119z" />
    <glyph glyph-name="uni00A0" unicode="&#xa0;" horiz-adv-x="518" 
 />
    <glyph glyph-name="cent" unicode="&#xa2;" horiz-adv-x="887" 
d="M80 401q0 161 65 324t187.5 294t286.5 197l63 234h45l-58 -215q120 39 251 39q112 0 180.5 -35.5t122.5 -97.5q15 -18 29 -18q38 0 83 122h45q-64 -189 -133 -471h-45q13 101 13 158q0 77 -33 145q-37 78 -111.5 119t-169.5 41q-132 0 -257 -96l-280 -1044
q76 -89 210 -89q94 0 194 42t174 118q54 56 93 126t92 198h45q-97 -355 -121 -492h-45q6 43 6 70q0 52 -26 52q-17 0 -42 -18q-93 -65 -182.5 -99t-206.5 -34q-122 0 -216 34l-101 -376h-45l105 392q-106 50 -162 146.5t-56 233.5zM285 360q0 -129 46 -215l254 945
q-88 -86 -156.5 -208t-106 -258.5t-37.5 -263.5z" />
    <glyph glyph-name="sterling" unicode="&#xa3;" horiz-adv-x="1278" 
d="M-49 -8q0 20 24.5 48t71 55.5t107.5 45.5q42 82 75.5 167.5t69.5 219.5l21 80h-199l12 41h198l43 164h-198l12 41h197l12 45q74 278 224.5 443t394.5 165q70 0 118 -19t71.5 -50.5t23.5 -69.5q0 -34 -16.5 -63.5t-45.5 -47.5t-65 -18q-32 0 -53 19t-21 51q0 41 27.5 73.5
t70.5 44.5q0 20 -35 35t-79 15q-122 0 -199.5 -71t-120.5 -176.5t-90 -277.5l-26 -98h278l-12 -41h-277l-43 -164h277l-13 -41h-276q-28 -88 -73 -162t-101 -138.5t-143 -151.5q139 65 258 65q69 0 150.5 -30.5t130.5 -46t114 -15.5q46 0 86.5 19t65 53.5t24.5 79.5
q0 58 -35 93.5t-98 47.5l12 35q89 -16 148 -69t59 -140q0 -67 -40.5 -131.5t-108.5 -105t-144 -40.5q-94 0 -184 64t-144 96.5t-135 32.5q-85 0 -178 -41q-52 -72 -104 -112t-93 -40q-14 0 -20 4.5t-6 16.5z" />
    <glyph glyph-name="yen" unicode="&#xa5;" horiz-adv-x="1440" 
d="M215 1102l67 198q22 64 46 102t61 57.5t94 19.5q108 0 174.5 -88t103.5 -245.5t64 -408.5q148 372 383 609q133 133 242 133q60 0 87 -31.5t27 -78.5q0 -30 -13 -63t-40.5 -56t-67.5 -23q-77 0 -77 81q0 33 18 67t47 61h-6q-55 -3 -113 -45q-107 -78 -230.5 -251.5
t-237.5 -447.5l-21 -84h289l-10 -41h-289l-31 -123h285l-10 -41h-285l-47 -186q-17 -66 -17 -99q0 -30 13.5 -46t42 -22.5t81.5 -8.5l-10 -41q-91 6 -254 6q-179 0 -268 -6l10 41q74 3 111 16t59 48.5t41 111.5l47 186h-288l10 41h288l31 123h-284l10 41h284l22 87
q-73 671 -239 671q-35 0 -58 -22t-40 -74l-57 -168h-45z" />
    <glyph glyph-name="dieresis" unicode="&#xa8;" horiz-adv-x="799" 
d="M61 1389q0 31 19 62t51 51t68 20q43 0 72.5 -30t29.5 -73q0 -33 -19 -64.5t-50.5 -51t-67.5 -19.5q-46 0 -74.5 29.5t-28.5 75.5zM496 1389q0 31 19 62t50.5 51t67.5 20q43 0 72.5 -30t29.5 -73q0 -33 -19 -64.5t-50.5 -51t-67.5 -19.5q-45 0 -73.5 30t-28.5 75z" />
    <glyph glyph-name="copyright" unicode="&#xa9;" horiz-adv-x="1892" 
d="M180 786q0 222 109.5 409.5t297 297t408.5 109.5q222 0 409 -109.5t296.5 -297t109.5 -409.5q0 -221 -109.5 -408.5t-296.5 -297t-409 -109.5q-221 0 -408.5 109.5t-297 297t-109.5 408.5zM262 786q0 -203 98.5 -375t267 -273t367.5 -101q200 0 368.5 101t267 273
t98.5 375q0 204 -98.5 376t-267 273t-368.5 101q-199 0 -367.5 -101t-267 -273t-98.5 -376zM551 774q0 166 60.5 295.5t169 201.5t249.5 72q86 0 162.5 -27.5t123 -78.5t46.5 -117q0 -53 -30.5 -83.5t-78.5 -30.5q-47 0 -79.5 30t-32.5 80q0 42 23 69t63 36q-20 37 -73 61.5
t-112 24.5q-75 0 -141 -47.5t-108.5 -161t-42.5 -299.5q0 -169 39.5 -276t105 -155.5t147.5 -48.5q90 0 169.5 51t129.5 160l39 -14q-23 -73 -70.5 -137.5t-124.5 -106t-179 -41.5q-129 0 -232.5 66t-163 189t-59.5 288z" />
    <glyph glyph-name="guillemotleft" unicode="&#xab;" horiz-adv-x="1059" 
d="M49 498v4q157 110 294 253t271 326h37q-42 -90 -120 -206t-166.5 -218.5t-161.5 -156.5q57 -47 116.5 -141t106 -200t66.5 -188h-37q-181 353 -406 527zM387 498v4q157 110 294 253t271 326h37q-39 -88 -116.5 -204t-167.5 -219.5t-164 -157.5q56 -47 115.5 -141
t106.5 -200.5t66 -187.5h-36q-181 353 -406 527z" />
    <glyph glyph-name="uni00AD" unicode="&#xad;" horiz-adv-x="1032" 
d="M109 461l30 119h740l-31 -119h-739z" />
    <glyph glyph-name="registered" unicode="&#xae;" horiz-adv-x="1432" 
d="M258 1030q0 155 77 286.5t208 208.5t286 77t286.5 -77t208.5 -208.5t77 -286.5t-77 -286t-208.5 -208t-286.5 -77t-286 77t-208 208t-77 286zM344 1030q0 -136 65 -252.5t176.5 -185t243.5 -68.5q133 0 244.5 68.5t176.5 185t65 252.5q0 137 -65 253t-176.5 184.5
t-244.5 68.5t-244 -68.5t-176 -184.5t-65 -253zM573 721v31q21 2 30.5 7.5t13.5 20.5t4 47v449q0 33 -4 48.5t-13.5 21.5t-30.5 8v30q25 -2 99 -2q68 0 111.5 1t64.5 1q116 0 176.5 -42t60.5 -119q0 -139 -198 -174q81 -9 116 -37t46 -82l24 -117q2 -8 6 -28.5t11.5 -30
t19.5 -9.5q15 0 25 17l20 -14q-12 -24 -33.5 -33.5t-56.5 -9.5q-52 0 -76.5 19t-36.5 64l-34 152q-9 41 -23.5 59t-49 26t-108.5 9v-207q0 -32 3.5 -47t13 -20.5t30.5 -7.5v-31q-20 0 -46.5 1t-57.5 1q-35 0 -62 -1t-45 -1zM737 1067h49q101 0 136.5 35t35.5 100
q0 79 -32.5 115.5t-110.5 36.5q-33 0 -49.5 -5.5t-22.5 -19.5t-6 -43v-219z" />
    <glyph glyph-name="acute" unicode="&#xb4;" horiz-adv-x="457" 
d="M260 1245q56 66 97.5 120l105.5 141.5t104 127.5q40 46 84 46q25 0 45 -15q16 -16 16 -40q0 -41 -46 -87q-36 -38 -106 -89l-134 -100.5t-145 -121.5z" />
    <glyph glyph-name="cedilla" unicode="&#xb8;" horiz-adv-x="467" 
d="M-2 -340l14 31q30 -13 55 -20t68 -7q27 0 61.5 10t60.5 33.5t26 61.5q0 49 -58 49q-33 0 -63 -15l94 197h55l-69 -147q39 14 84 14q41 0 64.5 -22t23.5 -60q0 -56 -39 -94.5t-97.5 -57t-115.5 -18.5q-53 0 -97.5 13.5t-66.5 31.5z" />
    <glyph glyph-name="guillemotright" unicode="&#xbb;" horiz-adv-x="1057" 
d="M31 -29q42 90 120 206t166.5 219t161.5 157q-57 47 -116.5 140.5t-106 199.5t-66.5 188h37q181 -354 406 -528v-2q-157 -112 -294.5 -254.5t-270.5 -325.5h-37zM369 -29q42 90 120 206t166.5 219t161.5 157q-57 47 -116.5 140.5t-106 199.5t-66.5 188h37
q181 -354 406 -528v-2q-300 -213 -565 -580h-37z" />
    <glyph glyph-name="circumflex" unicode="&#x2c6;" horiz-adv-x="823" 
d="M96 1290q133 57 249.5 151.5t191.5 200.5h36q22 -128 78 -210.5t166 -141.5l-8 -28q-119 33 -196 84t-148 129q-179 -141 -359 -213z" />
    <glyph glyph-name="ring" unicode="&#x2da;" horiz-adv-x="535" 
d="M68 1409q0 58 30 106.5t81 76.5t112 28q49 0 89 -20.5t63.5 -57.5t23.5 -86q0 -56 -32 -104.5t-85 -77.5t-112 -29q-74 0 -122 44.5t-48 119.5zM121 1411q0 -58 37 -90.5t88 -32.5q43 0 82 22.5t62.5 61.5t23.5 86q0 37 -19 64t-49 41t-63 14q-41 0 -78.5 -23.5
t-60.5 -62t-23 -80.5z" />
    <glyph glyph-name="tilde" unicode="&#x2dc;" horiz-adv-x="842" 
d="M182 1362q45 107 116.5 159t150.5 52q59 0 97 -21t98 -75t118 -54q78 0 143 119l37 -10q-45 -107 -116.5 -159t-149.5 -52q-59 0 -97.5 21t-98.5 74.5t-118 53.5q-79 0 -143 -118z" />
    <glyph glyph-name="afii10023" unicode="&#x401;" horiz-adv-x="1249" 
d="M-72 0l11 41q74 3 110 16t58 48t43 112l272 1016q18 65 18 100q0 30 -13.5 45.5t-42 22t-81.5 8.5l10 41q201 -6 594 -6q287 0 408 6q-54 -148 -78 -242q-23 -80 -29 -127h-47q18 110 18 165q0 59 -19 92.5t-63.5 49t-123.5 15.5h-150q-73 0 -109.5 -12t-58.5 -46.5
t-43 -111.5l-129 -483h135q102 0 153 61t76 125t34 84h47q-42 -129 -60.5 -201t-23.5 -90q-27 -96 -66 -291h-47q2 14 9 59t7 80q0 63 -31 97.5t-110 34.5h-134l-132 -492q-18 -64 -18 -99q0 -30 14 -45t43 -20.5t82 -5.5h149q128 0 203.5 34t125.5 109t103 220h48
q-20 -50 -46 -148q-30 -110 -55 -262q-139 6 -469 6q-393 0 -592 -6zM555 1686q0 31 19 62t51 51t68 20q43 0 72.5 -30t29.5 -73q0 -33 -19 -64.5t-50.5 -51t-67.5 -19.5q-46 0 -74.5 29.5t-28.5 75.5zM990 1686q0 31 19 62t50.5 51t67.5 20q43 0 72.5 -30t29.5 -73
q0 -33 -19 -64.5t-50.5 -51t-67.5 -19.5q-45 0 -73.5 30t-28.5 75z" />
    <glyph glyph-name="afii10051" unicode="&#x402;" horiz-adv-x="1640" 
d="M207 0l10 41q92 3 137 17.5t70.5 54t48.5 125.5l311 1170q-115 13 -202 13q-167 0 -220 -35q16 -21 26.5 -54.5t10.5 -63.5q0 -47 -26 -83t-76 -36q-43 0 -66.5 27.5t-23.5 74.5q0 107 108 160q97 47 275 47q82 0 158 -7.5t236.5 -28.5t275.5 -21q75 0 122 10t84 35
q-51 52 -51 115q0 46 26 79t75 33q45 0 68.5 -28t23.5 -70q0 -45 -26.5 -83t-70.5 -65q-46 -34 -109.5 -50.5t-162.5 -16.5q-102 0 -270 23l-177 -663q76 57 185.5 94.5t220.5 37.5q158 0 248 -80t90 -235q0 -141 -73.5 -272t-201.5 -212.5t-284 -81.5q-99 0 -164 35.5
t-65 108.5q0 38 18 70.5t50 52.5t73 20q39 0 61.5 -20t22.5 -56q0 -47 -33.5 -87.5t-83.5 -57.5q22 -35 102 -35q120 0 207.5 81.5t132.5 204t45 242.5q0 142 -62.5 199t-170.5 57q-89 0 -180.5 -30t-148.5 -78l-187 -701q-94 29 -256 29q-63 0 -131 -6z" />
    <glyph glyph-name="afii10052" unicode="&#x403;" horiz-adv-x="1090" 
d="M-72 0l11 41q74 3 110 16t58 48t43 112l272 1016q18 65 18 100q0 30 -13.5 45.5t-42 22t-81.5 8.5l10 41q258 -6 273 -6q42 -1 124 -1l197 1q244 0 346 6q-46 -133 -84 -262q-16 -60 -39 -168h-47q22 114 22 194q0 101 -37.5 145t-115.5 44h-129q-73 0 -109.5 -12
t-58.5 -46.5t-43 -111.5l-272 -1016q-16 -61 -16 -91q0 -34 17 -51.5t54 -24.5t105 -9l-11 -41q-106 6 -301 6q-173 0 -260 -6zM645 1604q75 50 131 91.5l140 106.5t130 92q39 24 78 24q43 0 58 -34q4 -9 4 -20q0 -25 -21.5 -49.5t-50.5 -40.5q-44 -26 -125.5 -56l-157 -60
t-172.5 -77z" />
    <glyph glyph-name="afii10053" unicode="&#x404;" horiz-adv-x="1378" 
d="M104 453q0 236 118 475.5t323.5 395t451.5 155.5q83 0 139 -18t90.5 -44.5t76.5 -70.5q18 -18 31 -18q36 0 81 122h43q-68 -177 -131 -471h-45q12 80 12 140q0 96 -32 163q-38 76 -110.5 118t-158.5 42q-134 0 -262.5 -101.5t-228 -268.5t-150.5 -356q49 77 122.5 120
t146.5 43q65 0 112.5 -22t136.5 -84t174 -62q47 0 98 27.5t95 82.5l27 -18q-170 -211 -336 -211q-67 0 -115 22t-136.5 84t-176.5 62q-94 0 -163 -108q-28 -127 -28 -242q0 -198 77.5 -300t215.5 -102q90 0 190.5 42t174.5 118q52 53 91.5 124t92.5 200h45
q-93 -340 -121 -492h-45q6 44 6 70q0 52 -24 52q-16 0 -43 -18q-73 -47 -122.5 -73t-114.5 -43t-150 -17q-228 0 -353 123t-125 359z" />
    <glyph glyph-name="afii10054" unicode="&#x405;" horiz-adv-x="1135" 
d="M-37 -14q69 163 139 491h41q-11 -61 -15 -94.5t-3 -71.5q13 -299 334 -299q139 0 220 63.5t81 192.5q0 168 -156.5 316.5t-236.5 242t-80 252.5q0 126 64 216.5t167.5 137t218.5 46.5q84 0 145.5 -20.5t121.5 -65.5q47 -37 67 -37q17 0 32 25t36 83h41
q-74 -180 -121 -417h-41q12 57 12 116q0 78 -30.5 140.5t-96 99.5t-164.5 37q-129 0 -207.5 -66t-78.5 -194q0 -151 171.5 -310.5t259 -257t87.5 -239.5q0 -134 -77 -224.5t-195.5 -134t-245.5 -43.5q-108 0 -173.5 26.5t-117.5 68.5q-39 30 -74 30q-24 0 -41 -24t-43 -86
h-41z" />
    <glyph glyph-name="afii10055" unicode="&#x406;" horiz-adv-x="698" 
d="M-68 0l11 41q72 3 108 16t57.5 48.5t41.5 111.5l270 1016q17 65 17 98q0 31 -14 47t-42.5 22.5t-81.5 8.5l10 41q84 -6 260 -6q165 0 262 6l-10 -41q-75 -3 -111.5 -16t-58 -48t-41.5 -112l-270 -1016q-17 -66 -17 -99q0 -30 13.5 -46t42.5 -22.5t82 -8.5l-8 -41
q-96 6 -260 6q-171 0 -261 -6z" />
    <glyph glyph-name="afii10056" unicode="&#x407;" horiz-adv-x="698" 
d="M-68 0l11 41q72 3 108 16t57.5 48.5t41.5 111.5l270 1016q17 65 17 98q0 31 -14 47t-42.5 22.5t-81.5 8.5l10 41q84 -6 260 -6q165 0 262 6l-10 -41q-75 -3 -111.5 -16t-58 -48t-41.5 -112l-270 -1016q-17 -66 -17 -99q0 -30 13.5 -46t42.5 -22.5t82 -8.5l-8 -41
q-96 6 -260 6q-171 0 -261 -6zM286 1686q0 31 19 62t51 51t68 20q43 0 72.5 -30t29.5 -73q0 -33 -19 -64.5t-50.5 -51t-67.5 -19.5q-46 0 -74.5 29.5t-28.5 75.5zM721 1686q0 31 19 62t50.5 51t67.5 20q43 0 72.5 -30t29.5 -73q0 -33 -19 -64.5t-50.5 -51t-67.5 -19.5
q-45 0 -73.5 30t-28.5 75z" />
    <glyph glyph-name="afii10057" unicode="&#x408;" horiz-adv-x="1303" 
d="M92 -268q0 29 14.5 55.5t40.5 43.5t58 17q37 0 61.5 -24.5t24.5 -60.5q0 -34 -23 -61.5t-59 -43.5q30 -10 72 -10q132 0 196.5 129.5t105.5 295l56 224.5l61 240q23 91 57 172h-272l7 41h283q59 129 143.5 234.5t183.5 190.5t235 183q-237 -123 -405 -123
q-99 0 -200.5 38.5t-160.5 57.5t-143 19q-68 0 -102 -36t-31 -100q1 -60 40 -97.5t111 -51.5l-6 -41q-93 16 -157.5 73t-67.5 165q-3 73 25 130t83 89t130 32t134 -27.5t177 -109.5t227 -82q66 0 122.5 11t107 29t133.5 52q77 120 127 120q14 0 28 -11q13 -11 13 -25
q0 -50 -150 -106q-287 -192 -426 -614h203l-6 -41h-210l-22 -80l-127 -496q-58 -229 -179.5 -373.5t-303.5 -144.5q-96 0 -152.5 30t-56.5 87z" />
    <glyph glyph-name="afii10058" unicode="&#x409;" horiz-adv-x="1915" 
d="M-133 80q0 31 13 64t40.5 56t67.5 23t59 -23.5t19 -58.5q0 -29 -19 -64.5t-47 -62.5h4q73 3 137 54q78 62 172.5 222t192.5 402.5t182 540.5q17 65 17 98q0 31 -13.5 47t-42.5 22.5t-82 8.5l11 41q65 -6 190 -6q16 0 69 3t113 3q93 0 173.5 -3t103.5 -3q176 0 264 6
l-10 -41q-75 -3 -111.5 -16t-58 -48t-41.5 -112l-123 -463h72q201 0 327.5 -30.5t191 -104.5t64.5 -203q0 -139 -88 -237t-227.5 -146.5t-294.5 -48.5q-49 0 -162.5 3t-189.5 3q-164 0 -250 -6l8 41q74 3 110.5 16t58.5 48t42 112l270 1016q18 63 18 100q0 31 -14 47
t-43.5 22.5t-81.5 6.5h-28q-69 0 -104 -13.5t-56 -49.5t-41 -113q-64 -241 -156 -484t-197.5 -434t-205.5 -272q-87 -72 -182 -72q-121 0 -121 109zM981 118q0 -39 27 -55t96 -16q260 0 376.5 105.5t116.5 310.5q0 94 -36 153t-124.5 89t-244.5 30h-55l-138 -518
q-18 -67 -18 -99z" />
    <glyph glyph-name="afii10059" unicode="&#x40a;" horiz-adv-x="2054" 
d="M-66 0l11 41q72 3 108 16t57.5 48.5t41.5 111.5l270 1016q17 65 17 98q0 31 -14 47t-42.5 22.5t-81.5 8.5l10 41q84 -6 260 -6q164 0 263 6l-11 -41q-75 -3 -111.5 -16t-58 -48t-41.5 -112l-128 -483h657l129 483q17 65 17 98q0 31 -14 47t-42.5 22.5t-81.5 8.5l10 41
q82 -6 260 -6q165 0 262 6l-10 -41q-75 -3 -111.5 -16t-58 -48t-41.5 -112l-128 -483h208q203 0 305.5 -76.5t102.5 -218.5q0 -146 -107.5 -249t-271.5 -154.5t-332 -51.5q-28 0 -94 3t-101 3q-170 0 -260 -6l11 41q72 3 108 16t57 48.5t41 111.5l131 492h-657l-131 -492
q-17 -66 -17 -99q0 -30 13.5 -46t42.5 -22.5t82 -8.5l-8 -41q-96 6 -260 6q-171 0 -261 -6zM1172 114q0 -39 21.5 -55t70.5 -16q147 0 254.5 53.5t165 153.5t57.5 237q0 80 -26.5 128.5t-83.5 71t-150 22.5h-160l-131 -492q-18 -66 -18 -103z" />
    <glyph glyph-name="afii10060" unicode="&#x40b;" horiz-adv-x="1657" 
d="M205 0l8 41q88 3 136.5 21t76 58t47.5 118l311 1170q-111 13 -192 13q-177 0 -230 -35q16 -21 26.5 -54.5t10.5 -63.5q0 -47 -26 -83t-76 -36q-43 0 -66.5 27.5t-23.5 74.5q0 107 108 160q97 47 275 47q82 0 157 -7t237 -28.5t280 -21.5q71 0 118 10t84 35
q-51 52 -51 115q0 46 26 79t75 33q45 0 68.5 -28t23.5 -70q0 -45 -26.5 -83t-70.5 -65q-89 -67 -262 -67q-111 0 -280 23l-167 -628q70 38 174 67.5t200 29.5q175 0 258 -100q50 -61 50 -156q0 -62 -24 -152l-65 -254q-11 -42 -11 -68q0 -44 29.5 -61.5t95.5 -17.5l-10 -43
q-188 8 -250 8q-59 0 -231 -8l10 43q54 0 87 14t53 45.5t36 87.5l72 261q26 93 26 154q0 87 -53 134t-174 47q-77 0 -154.5 -17.5t-128.5 -48.5l-128 -482q-19 -68 -19 -104q0 -35 17 -54.5t53.5 -28t101.5 -10.5l-8 -41q-108 6 -305 6q-201 0 -299 -6z" />
    <glyph glyph-name="afii10061" unicode="&#x40c;" horiz-adv-x="1382" 
d="M-68 0l11 41q72 3 108 16t57.5 48.5t41.5 111.5l270 1016q17 65 17 98q0 31 -14 47t-42.5 22.5t-81.5 8.5l10 41q84 -6 260 -6q164 0 262 6l-10 -41q-75 -3 -111.5 -16t-58 -48t-41.5 -112l-270 -1016q-17 -66 -17 -99q0 -30 13.5 -46t42.5 -22.5t82 -8.5l-8 -41
q-96 6 -260 6q-171 0 -261 -6zM535 756q0 41 61 41q42 0 125 -21q148 18 219 119t137 293t127 244q61 47 123 47q63 0 92 -30.5t29 -79.5q0 -27 -12.5 -60.5t-39 -57.5t-67.5 -24q-40 0 -60 24t-20 58q0 29 19 64.5t47 62.5h-6q-41 -2 -74 -29q-53 -48 -118 -232.5
t-137 -292t-224 -125.5q74 -17 118 -42.5t70 -86.5t26 -173l-1 -35l-8 -232l-1 -24q0 -40 13 -60t49 -20q52 0 87 38t65 122l34 104h41l-53 -158q-38 -112 -99.5 -165.5t-150.5 -53.5q-173 0 -173 203q0 23 1 35l14 231q3 43 3 79q0 91 -18 136.5t-57 78.5q-72 -19 -118 -19
q-63 0 -63 41zM797 1604q75 50 131 91.5l140 106.5t130 92q39 24 78 24q43 0 58 -34q4 -9 4 -20q0 -25 -21.5 -49.5t-50.5 -40.5q-44 -26 -125.5 -56l-157 -60t-172.5 -77z" />
    <glyph glyph-name="afii10062" unicode="&#x40e;" horiz-adv-x="1300" 
d="M109 89q0 29 14.5 56t40.5 43.5t57 16.5q37 0 61.5 -25t24.5 -61q0 -33 -23.5 -61t-58.5 -44q32 -10 80 -10q67 0 119.5 24.5t96.5 70t94 118.5l-253 1061q-11 46 -37.5 75t-56 42t-53.5 14l10 41q81 -6 221 -6q157 0 246 6l-10 -41q-74 -3 -103.5 -20t-29.5 -63
q0 -31 14 -89l197 -805l520 805q52 80 52 114q0 28 -29.5 42.5t-96.5 15.5l11 41q57 -6 188 -6q77 0 133 6l-10 -41q-38 -2 -86 -34t-90 -97l-609 -942q-91 -146 -138.5 -210t-118 -109.5t-169.5 -45.5q-95 0 -151.5 30t-56.5 88zM548 1708q0 37 18.5 67t50 47t68.5 17
q41 0 64.5 -22t23.5 -64q0 -43 -26 -75.5t-70 -47.5q22 -16 72.5 -26.5t107.5 -10.5q296 0 520 211l29 -24q-116 -115 -261 -172.5t-302 -57.5q-113 0 -204 36.5t-91 121.5z" />
    <glyph glyph-name="afii10145" unicode="&#x40f;" horiz-adv-x="1546" 
d="M-70 0l11 41q75 3 111.5 16t58 48t41.5 112l270 1016q17 66 17 99q0 30 -13.5 46t-42.5 22.5t-82 8.5l8 41q87 -6 262 -6q166 0 260 6l-8 -41q-74 -3 -110.5 -16t-58.5 -48t-42 -112l-270 -1016q-18 -63 -18 -99q0 -46 31 -61.5t108 -15.5h336q68 0 103.5 14t56 50
t40.5 112l271 1016q17 66 17 99q0 30 -13.5 46t-42.5 22.5t-82 8.5l8 41q96 -6 260 -6q172 0 260 6l-10 -41q-72 -3 -108 -16t-57.5 -48.5t-41.5 -111.5l-270 -1016q-17 -65 -17 -98q0 -31 14 -47t42.5 -22.5t81.5 -8.5l-11 -41q-82 6 -260 6q4 0 -205 -4q-74 -7 -120.5 -42
t-81.5 -99.5t-82 -188.5h-47q26 130 26 193q0 65 -27 97.5t-92 39.5q-238 4 -216 4q-175 0 -265 -6z" />
    <glyph glyph-name="afii10017" unicode="&#x410;" horiz-adv-x="1288" 
d="M-178 0l10 41q94 20 205 178l883 1241h30l82 -1288q5 -67 34.5 -98t66.5 -33l-9 -41q-82 6 -223 6q-165 0 -246 -6l9 41q70 3 108 17.5t54.5 50t13.5 104.5l-19 336h-503l-154 -217q-96 -136 -96 -204q0 -84 151 -87l-10 -41q-114 6 -234 6q-89 0 -153 -6zM347 590h472
l-34 619z" />
    <glyph glyph-name="afii10018" unicode="&#x411;" horiz-adv-x="1292" 
d="M-68 0l9 41q74 3 110.5 16t58.5 48t42 112l270 1016q17 65 17 98q0 31 -14 47t-42.5 22.5t-81.5 8.5l10 41q228 -6 248 -6q45 -1 131 -1l209 1q295 0 424 6q-50 -129 -78 -242q-11 -46 -26 -127h-45q15 84 15 144q0 97 -43 137.5t-138 40.5h-191q-72 0 -108 -12
t-57.5 -46.5t-41.5 -111.5l-122 -463h73q201 0 327.5 -30.5t191.5 -104.5t65 -203q0 -139 -88 -237t-228 -146.5t-294 -48.5q-49 0 -163 3t-190 3q-163 0 -250 -6zM323 117q0 -38 27 -54t96 -16q261 0 377.5 105t116.5 311q0 94 -36 153t-124.5 89t-244.5 30h-56l-137 -518
q-19 -73 -19 -100z" />
    <glyph glyph-name="afii10019" unicode="&#x412;" 
d="M-68 0l9 41q74 3 110.5 16t58.5 48t42 112l270 1016q17 68 17 98q0 41 -30 59t-108 19l10 41q84 -6 244 -6q46 0 141 2t148 2q190 0 287.5 -70t97.5 -192q0 -100 -59 -183.5t-154 -142.5t-207 -94q336 -55 336 -334q0 -139 -88 -237t-228 -146.5t-294 -48.5q-49 0 -163 3
t-190 3q-163 0 -250 -6zM323 117q0 -38 27 -54t96 -16q261 0 377.5 105t116.5 311q0 272 -293 272h-168l-137 -518q-19 -73 -19 -100zM488 770h135q119 0 211 55.5t142 147.5t50 198q0 122 -52.5 180t-168.5 58q-62 0 -96.5 -12t-54.5 -42t-36 -91z" />
    <glyph glyph-name="afii10020" unicode="&#x413;" horiz-adv-x="1090" 
d="M-72 0l11 41q74 3 110 16t58 48t43 112l272 1016q18 65 18 100q0 30 -13.5 45.5t-42 22t-81.5 8.5l10 41q258 -6 273 -6q42 -1 124 -1l197 1q244 0 346 6q-46 -133 -84 -262q-16 -60 -39 -168h-47q22 114 22 194q0 101 -37.5 145t-115.5 44h-129q-73 0 -109.5 -12
t-58.5 -46.5t-43 -111.5l-272 -1016q-16 -61 -16 -91q0 -34 17 -51.5t54 -24.5t105 -9l-11 -41q-106 6 -301 6q-173 0 -260 -6z" />
    <glyph glyph-name="afii10021" unicode="&#x414;" horiz-adv-x="1333" 
d="M-295 -389l21.5 56.5t25.5 70.5q61 182 84 303h148q76 0 141 53q75 63 167.5 219t187 392.5t171.5 527.5q18 63 18 99q0 30 -14 46t-43 22.5t-82 8.5l11 41q64 -6 190 -6q16 0 69 3t113 3q93 0 173.5 -3t103.5 -3q175 0 264 6l-10 -41q-75 -3 -111.5 -16t-58 -48
t-41.5 -112l-270 -1016q-17 -65 -17 -100q0 -31 13.5 -47t42.5 -22.5t81 -6.5h64q-46 -120 -90 -303q-12 -47 -27 -127h-45q14 83 14 153q0 242 -186 242q-54 0 -167 -3t-259 -3h-237q-113 0 -213 -89t-187 -300h-45zM113 41h458q69 0 104.5 14t55.5 49.5t41 112.5l270 1016
q18 64 18 100q0 45 -30.5 60.5t-107.5 15.5h-29q-69 0 -104 -13.5t-56 -49.5t-41 -113q-62 -236 -151 -473t-190.5 -423.5t-196.5 -266.5q-21 -17 -41 -29z" />
    <glyph glyph-name="afii10022" unicode="&#x415;" horiz-adv-x="1249" 
d="M-72 0l11 41q74 3 110 16t58 48t43 112l272 1016q18 65 18 100q0 30 -13.5 45.5t-42 22t-81.5 8.5l10 41q201 -6 594 -6q287 0 408 6q-54 -148 -78 -242q-23 -80 -29 -127h-47q18 110 18 165q0 59 -19 92.5t-63.5 49t-123.5 15.5h-150q-73 0 -109.5 -12t-58.5 -46.5
t-43 -111.5l-129 -483h135q102 0 153 61t76 125t34 84h47q-42 -129 -60.5 -201t-23.5 -90q-27 -96 -66 -291h-47q2 14 9 59t7 80q0 63 -31 97.5t-110 34.5h-134l-132 -492q-18 -64 -18 -99q0 -30 14 -45t43 -20.5t82 -5.5h149q128 0 203.5 34t125.5 109t103 220h48
q-20 -50 -46 -148q-30 -110 -55 -262q-139 6 -469 6q-393 0 -592 -6z" />
    <glyph glyph-name="afii10024" unicode="&#x416;" horiz-adv-x="1939" 
d="M-88 160l31 14q42 -90 123 -90q40 0 63.5 25t50.5 79l119 232q64 127 121.5 193.5t117.5 95.5t152 48q-90 11 -126 63t-36 138q0 43 7 89.5t25 142.5t18 143q0 43 -18 73t-60 30h-6q16 -30 16 -66t-19.5 -69t-52 -53.5t-69.5 -20.5q-64 0 -64 63q0 48 27.5 91.5
t73.5 70.5t100 27q55 0 86 -33t31 -94q0 -50 -16.5 -132t-27 -140.5t-10.5 -110.5q0 -83 37 -133.5t127 -59.5q52 18 83 18q45 0 42 -36q-5 -41 -53 -41q-37 0 -88 17q-65 -39 -116.5 -101.5t-113.5 -192.5l-108 -231q-41 -88 -73 -136.5t-74.5 -75t-104.5 -26.5
q-160 0 -215 189zM551 0l10 41q72 3 108 16t57.5 48.5t41.5 111.5l268 1016q18 72 18 96q0 39 -29.5 57t-106.5 23l10 41q83 -6 256 -6q167 0 266 6l-10 -41q-75 -3 -111.5 -16t-58 -48t-41.5 -112l-268 -1016q-20 -76 -20 -100q0 -38 30 -55t108 -21l-8 -41q-94 6 -264 6
q-167 0 -256 -6zM1152 749q0 42 52 42q28 0 75 -15q148 18 218.5 119t136.5 293t127 244q61 47 123 47q63 0 92 -30.5t29 -79.5q0 -27 -12.5 -60.5t-39 -57.5t-67.5 -24q-40 0 -60 24t-20 58q0 29 19 64.5t47 62.5h-6q-41 -2 -74 -29q-53 -48 -118 -232.5t-137 -292
t-223 -125.5q73 -16 117 -42t70 -87t26 -173l-1 -35l-8 -232q-2 -54 9.5 -79t51.5 -25q52 0 87 38t65 122l34 104h41l-53 -158q-38 -112 -99.5 -165.5t-150.5 -53.5q-173 0 -173 203q0 23 1 35l15 231q3 38 3 75q0 68 -16.5 122t-60.5 96q-44 -12 -78 -12q-42 0 -42 28z" />
    <glyph glyph-name="afii10025" unicode="&#x417;" horiz-adv-x="1145" 
d="M-4 156q0 37 19 70t51.5 53t70.5 20t61 -20.5t23 -59.5q0 -45 -32 -83.5t-85 -51.5q8 -20 44.5 -38t88.5 -29t105 -11q117 0 222.5 52.5t170 145t64.5 206.5q0 81 -34.5 155.5t-100.5 124.5t-156 60q-62 -30 -95 -30q-42 0 -42 29q0 38 57 38q31 0 68 -11
q110 21 209.5 84t161 155t61.5 195q0 100 -58 147.5t-155 47.5q-166 0 -275 -111.5t-176 -314.5h-45q94 302 119 471h43q-6 -45 -6 -63q0 -56 29 -56q13 0 36 15q72 47 121 73.5t108.5 43t133.5 16.5q146 0 234.5 -64.5t88.5 -183.5q0 -122 -93 -219t-227 -158t-259 -86
q105 0 208.5 -40t171.5 -120.5t68 -195.5q0 -135 -93.5 -235.5t-243.5 -153t-314 -52.5q-195 0 -289 74q-59 47 -59 111z" />
    <glyph glyph-name="afii10026" unicode="&#x418;" horiz-adv-x="1595" 
d="M-72 0l11 41q74 3 110 16t58 48t43 112l272 1016q18 64 18 100q0 30 -13.5 45.5t-42 22t-81.5 8.5l10 41q87 -6 262 -6q165 0 261 6l-11 -41q-75 -3 -111.5 -16t-58.5 -48t-43 -112l-255 -952l966 968q14 55 14 84q0 30 -13.5 45.5t-42 22t-81.5 8.5l10 41q96 -6 260 -6
q176 0 263 6l-11 -41q-75 -3 -111.5 -16t-58.5 -48t-43 -112l-272 -1016q-18 -65 -18 -100q0 -30 13.5 -45.5t42 -22t81.5 -8.5l-10 -41q-87 6 -263 6q-164 0 -260 -6l11 41q75 3 111.5 16t58.5 48t43 112l254 950l-965 -965q-14 -56 -14 -85q0 -30 13.5 -45.5t42 -22
t81.5 -8.5l-10 -41q-96 6 -261 6q-173 0 -260 -6z" />
    <glyph glyph-name="afii10027" unicode="&#x419;" horiz-adv-x="1595" 
d="M-72 0l11 41q74 3 110 16t58 48t43 112l272 1016q18 64 18 100q0 30 -13.5 45.5t-42 22t-81.5 8.5l10 41q87 -6 262 -6q165 0 261 6l-11 -41q-75 -3 -111.5 -16t-58.5 -48t-43 -112l-255 -952l966 968q14 55 14 84q0 30 -13.5 45.5t-42 22t-81.5 8.5l10 41q96 -6 260 -6
q176 0 263 6l-11 -41q-75 -3 -111.5 -16t-58.5 -48t-43 -112l-272 -1016q-18 -65 -18 -100q0 -30 13.5 -45.5t42 -22t81.5 -8.5l-10 -41q-87 6 -263 6q-164 0 -260 -6l11 41q75 3 111.5 16t58.5 48t43 112l254 950l-965 -965q-14 -56 -14 -85q0 -30 13.5 -45.5t42 -22
t81.5 -8.5l-10 -41q-96 6 -261 6q-173 0 -260 -6zM682 1708q0 37 18.5 67t50 47t68.5 17q41 0 64.5 -22t23.5 -64q0 -43 -26 -75.5t-70 -47.5q22 -16 72.5 -26.5t107.5 -10.5q296 0 520 211l29 -24q-116 -115 -261 -172.5t-302 -57.5q-113 0 -204 36.5t-91 121.5z" />
    <glyph glyph-name="afii10028" unicode="&#x41a;" horiz-adv-x="1382" 
d="M-68 0l11 41q72 3 108 16t57.5 48.5t41.5 111.5l270 1016q17 65 17 98q0 31 -14 47t-42.5 22.5t-81.5 8.5l10 41q84 -6 260 -6q164 0 262 6l-10 -41q-75 -3 -111.5 -16t-58 -48t-41.5 -112l-270 -1016q-17 -66 -17 -99q0 -30 13.5 -46t42.5 -22.5t82 -8.5l-8 -41
q-96 6 -260 6q-171 0 -261 -6zM535 756q0 41 61 41q42 0 125 -21q148 18 219 119t137 293t127 244q61 47 123 47q63 0 92 -30.5t29 -79.5q0 -27 -12.5 -60.5t-39 -57.5t-67.5 -24q-40 0 -60 24t-20 58q0 29 19 64.5t47 62.5h-6q-41 -2 -74 -29q-53 -48 -118 -232.5
t-137 -292t-224 -125.5q74 -17 118 -42.5t70 -86.5t26 -173l-1 -35l-8 -232l-1 -24q0 -40 13 -60t49 -20q52 0 87 38t65 122l34 104h41l-53 -158q-38 -112 -99.5 -165.5t-150.5 -53.5q-173 0 -173 203q0 23 1 35l14 231q3 43 3 79q0 91 -18 136.5t-57 78.5q-72 -19 -118 -19
q-63 0 -63 41z" />
    <glyph glyph-name="afii10029" unicode="&#x41b;" horiz-adv-x="1358" 
d="M-133 80q0 31 13 64t40.5 56t67.5 23t59 -23.5t19 -58.5q0 -29 -19 -64.5t-47 -62.5h6q66 3 135 54q78 62 172.5 222t192.5 402.5t182 540.5q17 65 17 98q0 31 -13.5 47t-42.5 22.5t-82 8.5l11 41q65 -6 190 -6q16 0 69 3t113 3q93 0 173.5 -3t103.5 -3q176 0 264 6
l-10 -41q-75 -3 -111.5 -16t-58 -48t-41.5 -112l-271 -1016q-17 -65 -17 -99q0 -30 13.5 -46t42.5 -22.5t82 -8.5l-8 -41q-85 6 -262 6q-165 0 -260 -6l8 41q74 3 110.5 16t58.5 48t42 112l270 1016q18 63 18 100q0 31 -14 47t-43.5 22.5t-81.5 6.5h-28q-69 0 -104 -13.5
t-56 -49.5t-41 -113q-64 -241 -156 -484t-197.5 -434t-205.5 -272q-87 -72 -182 -72q-121 0 -121 109z" />
    <glyph glyph-name="afii10030" unicode="&#x41c;" horiz-adv-x="1778" 
d="M-70 0l11 41q72 3 110.5 20.5t61 57.5t43.5 119l266 995q17 65 17 98q0 31 -14 47t-42.5 22.5t-81.5 8.5l10 41q65 -6 183 -6q109 0 180 6l112 -1214l770 1208h99q157 0 256 6l-10 -41q-75 -3 -111.5 -16t-58 -48t-41.5 -112l-271 -1016q-17 -65 -17 -98q0 -31 14 -47
t42.5 -22.5t81.5 -8.5l-8 -41q-96 6 -254 6q-180 0 -266 -6l8 41q75 3 111.5 16t58 48t41.5 112l297 1104l-850 -1331h-45l-139 1347l-291 -1099q-18 -70 -18 -103q0 -50 34.5 -70.5t120.5 -23.5l-10 -41q-70 6 -207 6q-122 0 -193 -6z" />
    <glyph glyph-name="afii10031" unicode="&#x41d;" horiz-adv-x="1546" 
d="M-68 0l11 41q72 3 108 16t57.5 48.5t41.5 111.5l270 1016q17 65 17 98q0 31 -14 47t-42.5 22.5t-81.5 8.5l10 41q84 -6 260 -6q164 0 262 6l-10 -41q-75 -3 -111.5 -16t-58 -48t-41.5 -112l-128 -483h657l129 483q18 63 18 98q0 31 -14 47t-43 22.5t-82 8.5l10 41
q93 -6 258 -6q175 0 264 6l-10 -41q-75 -3 -111.5 -16t-58 -48t-41.5 -112l-270 -1016q-18 -70 -18 -100t13.5 -45.5t42.5 -22t83 -8.5l-9 -41q-86 6 -262 6q-164 0 -260 -6l8 41q74 3 111 16t58.5 48t41.5 112l131 492h-657l-131 -492q-17 -66 -17 -99q0 -30 13.5 -46
t42.5 -22.5t82 -8.5l-8 -41q-96 6 -260 6q-171 0 -261 -6z" />
    <glyph glyph-name="afii10032" unicode="&#x41e;" horiz-adv-x="1493" 
d="M111 463q0 232 109 469t304.5 392t440.5 155q151 0 259.5 -58t166 -169t57.5 -267q0 -231 -110 -467.5t-306 -391.5t-440 -155q-151 0 -259 58t-165 168.5t-57 265.5zM328 436q0 -132 35.5 -228.5t99.5 -148t147 -51.5q155 0 298.5 147.5t232 381.5t88.5 477
q0 132 -36 228.5t-100 148t-147 51.5q-154 0 -297.5 -147.5t-232 -381.5t-88.5 -477z" />
    <glyph glyph-name="afii10033" unicode="&#x41f;" horiz-adv-x="1548" 
d="M-66 0l11 41q72 3 108 16t57.5 48.5t41.5 111.5l270 1016q17 65 17 98q0 31 -14 47t-42.5 22.5t-81.5 8.5l10 41q84 -6 260 -6q54 0 167.5 3t258.5 3q147 0 257.5 -3t162.5 -3q176 0 264 6l-10 -41q-75 -3 -111.5 -16t-58 -48t-41.5 -112l-270 -1016q-18 -70 -18 -100
t13.5 -45.5t42.5 -22t83 -8.5l-8 -41q-87 6 -263 6q-164 0 -260 -6l8 41q74 3 111 16t58.5 48t41.5 112l271 1016q18 63 18 99q0 46 -31 61.5t-108 15.5h-336q-68 0 -103.5 -14t-56 -49.5t-41.5 -112.5l-270 -1016q-17 -66 -17 -99q0 -30 13.5 -46t42.5 -22.5t82 -8.5
l-8 -41q-96 6 -260 6q-171 0 -261 -6z" />
    <glyph glyph-name="afii10034" unicode="&#x420;" horiz-adv-x="1206" 
d="M-68 0l9 41q74 3 110.5 16t58.5 48t42 112l270 1016q18 65 18 98q0 42 -30.5 59.5t-108.5 18.5l10 41q84 -6 252 -6q49 0 148.5 2t150.5 2q201 0 304.5 -82.5t103.5 -226.5q0 -160 -97.5 -286.5t-273.5 -198.5t-401 -72h-61l-97 -365q-20 -78 -20 -103q0 -38 30.5 -54.5
t110.5 -18.5l-8 -41q-96 6 -254 6q-180 0 -267 -6zM448 623h70q287 0 416 149.5t129 398.5q0 122 -62 180t-198 58q-62 0 -96.5 -15t-56 -52t-40.5 -109z" />
    <glyph glyph-name="afii10035" unicode="&#x421;" horiz-adv-x="1372" 
d="M104 453q0 236 118 475.5t323.5 395t451.5 155.5q83 0 139 -18t90.5 -44.5t76.5 -70.5q18 -18 31 -18q36 0 81 122h43q-68 -177 -131 -471h-45q12 80 12 140q0 96 -32 163q-38 76 -110.5 118t-158.5 42q-170 0 -328.5 -160t-257 -402.5t-98.5 -469.5q0 -198 77.5 -300
t215.5 -102q90 0 190.5 42t174.5 118q52 53 91.5 124t92.5 200h45q-93 -340 -121 -492h-45q6 44 6 70q0 52 -24 52q-16 0 -43 -18q-73 -47 -122.5 -73t-114.5 -43t-150 -17q-228 0 -353 123t-125 359z" />
    <glyph glyph-name="afii10036" unicode="&#x422;" horiz-adv-x="1350" 
d="M203 1251q0 107 108 160q96 47 275 47q81 0 156 -7t237.5 -28.5t280.5 -21.5q91 0 152.5 10t110.5 35q-50 51 -50 115q0 46 25.5 79t74.5 33q45 0 68.5 -28t23.5 -70q0 -45 -26.5 -83t-69.5 -65q-109 -67 -324 -67q-91 0 -210 14l-302 -1136q-18 -64 -18 -104
q0 -35 17 -54.5t53.5 -28t101.5 -10.5l-8 -41q-108 6 -306 6q-200 0 -299 -6l9 41q87 3 134.5 21t74.5 58t51 118l309 1160q-166 23 -264 23q-178 0 -230 -35q16 -21 26.5 -54.5t10.5 -63.5q0 -47 -26 -83t-76 -36q-44 0 -67 27.5t-23 74.5z" />
    <glyph glyph-name="afii10037" unicode="&#x423;" horiz-adv-x="1300" 
d="M109 89q0 29 14.5 56t40.5 43.5t57 16.5q37 0 61.5 -25t24.5 -61q0 -33 -23.5 -61t-58.5 -44q32 -10 80 -10q67 0 119.5 24.5t96.5 70t94 118.5l-253 1061q-11 46 -37.5 75t-56 42t-53.5 14l10 41q81 -6 221 -6q157 0 246 6l-10 -41q-74 -3 -103.5 -20t-29.5 -63
q0 -31 14 -89l197 -805l520 805q52 80 52 114q0 28 -29.5 42.5t-96.5 15.5l11 41q57 -6 188 -6q77 0 133 6l-10 -41q-38 -2 -86 -34t-90 -97l-609 -942q-91 -146 -138.5 -210t-118 -109.5t-169.5 -45.5q-95 0 -151.5 30t-56.5 88z" />
    <glyph glyph-name="afii10038" unicode="&#x424;" horiz-adv-x="1919" 
d="M72 547q0 158 122.5 301.5t356 233t549.5 89.5h27q66 72 157 135.5t227 139.5q-114 -57 -229.5 -90t-212.5 -33q-95 0 -162 28t-158 88t-149 60q-41 0 -64.5 -20.5t-23.5 -55.5q0 -48 47 -86l-29 -32q-77 49 -77 135q0 75 57.5 118.5t151.5 43.5q75 0 139 -25.5
t195.5 -99.5t236.5 -74q102 0 295 72q76 119 127 119q14 0 28 -11q13 -11 13 -25q0 -50 -150 -106q-184 -123 -286 -287q198 -16 337.5 -70.5t212 -145t72.5 -210.5q0 -152 -113 -290.5t-329 -230t-511 -102.5q-63 -227 -181 -364t-306 -137q-85 0 -142.5 29t-57.5 87
q0 29 15 56t40.5 44t56.5 17q37 0 61.5 -24.5t24.5 -60.5q0 -34 -23 -61.5t-59 -43.5q32 -10 70 -10q89 0 147.5 62t94.5 159t73 249q-213 11 -363.5 65t-229 146t-78.5 218zM291 528q0 -337 462 -372l35 141l107 397q40 150 88 255t113 186h-4q-262 0 -441.5 -75
t-269.5 -211.5t-90 -320.5zM940 154q237 11 399 88.5t243 209t81 306.5q0 324 -425 370q-74 -134 -130 -342z" />
    <glyph glyph-name="afii10039" unicode="&#x425;" horiz-adv-x="1432" 
d="M-69 77q0 30 13 64t40.5 58t68.5 24q40 0 59 -22.5t19 -55.5q0 -30 -18 -67t-47 -64h8q69 3 129 43q106 70 234 230t241 393l-53 453q-13 108 -50 170.5t-112 62.5q-60 0 -97 -37.5t-67 -122.5l-35 -104h-41l53 158q39 112 100.5 165.5t149.5 53.5q134 0 192.5 -89.5
t76.5 -230.5l37 -316q80 173 188.5 329.5t204.5 234.5q93 72 188 72q63 0 92.5 -29.5t29.5 -76.5q0 -30 -13 -64t-40.5 -58t-68.5 -24q-39 0 -58.5 22.5t-19.5 55.5q0 31 18.5 67.5t47.5 63.5h-6q-71 0 -131 -43q-92 -67 -206 -226t-219 -386l54 -464q12 -108 49 -170.5
t113 -62.5q60 0 97 37.5t67 122.5l34 104h41l-53 -158q-38 -112 -99.5 -165.5t-150.5 -53.5q-134 0 -192.5 90t-75.5 230l-37 322q-54 -112 -130 -224t-158.5 -203t-155.5 -143q-95 -72 -189 -72q-63 0 -92.5 29.5t-29.5 76.5z" />
    <glyph glyph-name="afii10040" unicode="&#x426;" horiz-adv-x="1559" 
d="M-70 0l11 41q75 3 111.5 16t58 48t41.5 112l270 1016q17 66 17 99q0 30 -13.5 46t-42.5 22.5t-82 8.5l8 41q87 -6 262 -6q166 0 260 6l-8 -41q-74 -3 -110.5 -16t-58.5 -48t-42 -112l-270 -1016q-18 -63 -18 -99q0 -46 31 -61.5t108 -15.5h336q68 0 103.5 14t56 50
t40.5 112l271 1016q17 66 17 99q0 30 -13.5 46t-42.5 22.5t-82 8.5l8 41q96 -6 260 -6q171 0 260 6l-10 -41q-72 -3 -108 -16t-57.5 -48.5t-41.5 -111.5l-270 -1016q-17 -65 -17 -99q0 -46 30.5 -61.5t107.5 -15.5h63q-41 -105 -90 -303q0 -2 -27 -127h-45q15 88 15 155
q0 240 -187 240q-54 0 -167 -3t-259 -3t-256.5 3t-162.5 3q-175 0 -265 -6z" />
    <glyph glyph-name="afii10041" unicode="&#x427;" horiz-adv-x="1360" 
d="M231 1407l11 43q188 -8 250 -8q59 0 231 8l-10 -43q-54 0 -87 -14t-53 -45.5t-36 -87.5l-91 -322q-26 -93 -26 -154q0 -88 53 -135t174 -47q78 0 156 18.5t129 48.5l151 564q19 68 19 100q0 30 -14 45.5t-42.5 22t-80.5 8.5l10 41q86 -6 262 -6q166 0 260 6l-10 -41
q-75 -3 -111.5 -16t-58.5 -48t-43 -112l-273 -1016q-18 -70 -18 -99q0 -30 13.5 -46t42 -22.5t81.5 -8.5l-10 -41q-85 6 -262 6q-194 0 -301 -6l10 41q92 3 137 16t70.5 48t46.5 112l111 416q-68 -38 -172.5 -67t-202.5 -29q-178 0 -258 100q-51 63 -51 156q0 63 24 151
l84 316q11 42 11 68q0 44 -30 61.5t-96 17.5z" />
    <glyph glyph-name="afii10042" unicode="&#x428;" horiz-adv-x="1964" 
d="M-72 0l11 41q74 3 110 16t58 48t43 112l272 1016q18 65 18 100q0 30 -13.5 45.5t-42 22t-81.5 8.5l10 41q87 -6 262 -6q151 0 240 6l-10 -41q-66 -3 -98.5 -16t-53 -48t-41.5 -112l-272 -1016q-19 -70 -19 -102q0 -30 13.5 -46t43 -22t81.5 -6h110q73 0 110 13t59.5 49
t43.5 114l273 1016q20 72 20 106q0 27 -12 41.5t-36.5 20.5t-70.5 8l11 41q89 -6 239 -6q162 0 242 6l-10 -41q-67 -3 -99.5 -16t-52.5 -47.5t-41 -112.5l-272 -1016q-19 -70 -19 -102q0 -30 13.5 -46t43 -22t81.5 -6h110q72 0 109.5 13t60 49.5t43.5 113.5l273 1016
q20 72 20 106q0 27 -12 41.5t-36.5 20.5t-70.5 8l10 41q90 -6 240 -6q176 0 262 6l-10 -41q-75 -3 -111.5 -16t-58.5 -48t-43 -112l-272 -1016q-19 -68 -19 -100q0 -30 14 -45.5t42.5 -22t80.5 -8.5l-10 -41q-85 6 -262 6q-53 0 -160 -3t-153 -3q-73 0 -178 3t-138 3
q-34 0 -141.5 -3t-181.5 -3q-49 0 -154.5 3t-157.5 3q-173 0 -260 -6z" />
    <glyph glyph-name="afii10043" unicode="&#x429;" horiz-adv-x="1970" 
d="M-72 0l11 41q74 3 110.5 16t59 48t43.5 112l270 1016q19 70 19 101q0 29 -14 44.5t-42.5 22t-81.5 8.5l12 41q84 -6 260 -6q151 0 242 6l-12 -41q-65 -3 -98 -16t-53.5 -48t-41.5 -112l-270 -1016q-19 -71 -19 -104q0 -29 13.5 -44.5t42 -21.5t80.5 -6h110q73 0 111 13
t60.5 49.5t43.5 113.5l271 1016q20 72 20 107q0 39 -26 52.5t-93 16.5l13 41q86 -6 237 -6q162 0 244 6l-12 -41q-66 -3 -98.5 -16t-53 -48t-41.5 -112l-270 -1016q-19 -71 -19 -104q0 -29 13.5 -44.5t42 -21.5t80.5 -6h110q73 0 110.5 13t60.5 49.5t44 113.5l271 1016
q20 72 20 107q0 39 -26 52.5t-93 16.5l13 41q86 -6 237 -6q175 0 264 6l-12 -41q-74 -3 -110.5 -16t-59 -48t-43.5 -112l-270 -1016q-19 -70 -19 -102q0 -29 13.5 -44t42 -21.5t79.5 -8.5h23q-53 -149 -84 -262q-33 -137 -39 -168h-47q24 126 24 207q0 101 -37 143.5
t-114 42.5q-69 0 -166 -2t-145 -2q-73 0 -177 3t-137 3t-142 -3t-183 -3q-49 0 -153.5 3t-156.5 3q-175 0 -262 -6z" />
    <glyph glyph-name="afii10044" unicode="&#x42a;" horiz-adv-x="1516" 
d="M193 1223q0 99 106 161q112 66 276 66q24 0 109.5 -3t163.5 -3q151 0 250 6l-11 -41q-75 -3 -111.5 -16t-57.5 -48t-41 -112l-123 -463h71q201 0 327.5 -30.5t191.5 -104.5t65 -203q0 -139 -88 -237t-227.5 -146.5t-294.5 -48.5q-49 0 -163 3t-190 3q-163 0 -249 -6l8 41
q74 3 110.5 16t58.5 48t42 112l270 1016q19 73 19 107q0 43 -27 58t-94 15q-164 0 -236 -55q16 -22 26.5 -55.5t10.5 -63.5q0 -47 -26.5 -83t-75.5 -36q-44 0 -67 27.5t-23 75.5zM587 117q0 -38 27.5 -54t96.5 -16q260 0 376.5 105.5t116.5 310.5q0 94 -36 153t-124.5 89
t-244.5 30h-55l-138 -518q-19 -73 -19 -100z" />
    <glyph glyph-name="afii10045" unicode="&#x42b;" horiz-adv-x="1949" 
d="M-68 0l9 41q74 3 110.5 16t58.5 48t42 112l270 1016q17 65 17 98q0 31 -14 47t-42.5 22.5t-81.5 8.5l10 41q84 -6 260 -6q164 0 263 6l-11 -41q-75 -3 -111.5 -16t-58 -48t-41.5 -112l-123 -463h72q201 0 327.5 -30.5t191.5 -104.5t65 -203q0 -139 -88 -237t-228 -146.5
t-294 -48.5q-49 0 -163 3t-190 3q-163 0 -250 -6zM323 117q0 -38 27 -54t96 -16q261 0 377.5 105t116.5 311q0 94 -36 153t-124.5 89t-244.5 30h-55l-138 -518q-19 -73 -19 -100zM1183 0l11 41q72 3 108 16t57.5 48.5t41.5 111.5l270 1016q17 65 17 98q0 31 -14 47
t-42.5 22.5t-81.5 8.5l10 41q84 -6 260 -6q165 0 262 6l-10 -41q-75 -3 -111.5 -16t-58 -48t-41.5 -112l-270 -1016q-17 -66 -17 -99q0 -30 13.5 -46t42.5 -22.5t82 -8.5l-8 -41q-96 6 -260 6q-171 0 -261 -6z" />
    <glyph glyph-name="afii10046" unicode="&#x42c;" horiz-adv-x="1251" 
d="M-68 0l9 41q74 3 110.5 16t58.5 48t42 112l270 1016q17 65 17 98q0 31 -14 47t-42.5 22.5t-81.5 8.5l10 41q84 -6 260 -6q164 0 263 6l-11 -41q-75 -3 -111.5 -16t-58 -48t-41.5 -112l-123 -463h72q201 0 327.5 -30.5t191.5 -104.5t65 -203q0 -139 -88 -237t-228 -146.5
t-294 -48.5q-49 0 -163 3t-190 3q-163 0 -250 -6zM323 117q0 -38 27 -54t96 -16q261 0 377.5 105t116.5 311q0 94 -36 153t-124.5 89t-244.5 30h-55l-138 -518q-19 -73 -19 -100z" />
    <glyph glyph-name="afii10047" unicode="&#x42d;" horiz-adv-x="1382" 
d="M-16 0q67 204 141 492h45q-16 -98 -16 -167q0 -94 28 -157q32 -73 108.5 -116.5t172.5 -43.5q154 0 283 110t218 283.5t131 363.5q-48 -82 -123.5 -127.5t-150.5 -45.5q-65 0 -112.5 22t-137 84t-174.5 62q-46 0 -97 -28t-95 -83l-27 19q170 211 336 211q67 0 115 -22
t136.5 -84t176.5 -62q95 0 165 110q21 113 21 211q0 118 -31.5 210.5t-96.5 146t-162 53.5q-87 0 -183.5 -42.5t-173.5 -117.5q-59 -57 -96.5 -123.5t-83.5 -179.5h-45q90 291 119 471h43q-6 -45 -6 -63q0 -56 29 -56q14 0 36 15q66 44 115.5 71t114 44.5t145.5 17.5
q160 0 267.5 -67.5t159.5 -185t52 -270.5q0 -231 -111 -460t-310.5 -377t-450.5 -148q-84 0 -141 17.5t-94 44.5t-81 71q-16 17 -32 17q-45 0 -82 -121h-45z" />
    <glyph glyph-name="afii10048" unicode="&#x42e;" horiz-adv-x="2146" 
d="M-66 0l11 41q72 3 108 16t57.5 48.5t41.5 111.5l270 1016q17 65 17 98q0 31 -14 47t-42.5 22.5t-81.5 8.5l10 41q84 -6 260 -6q165 0 262 6l-10 -41q-75 -3 -111.5 -16t-58 -48t-41.5 -112l-128 -483h321q55 193 170 359.5t281 268t362 101.5q151 0 259.5 -58t166 -169
t57.5 -267q0 -231 -110 -467.5t-306 -391.5t-440 -155q-151 0 -259 58t-165 168.5t-57 265.5q0 120 31 246h-322l-131 -492q-17 -66 -17 -99q0 -30 13.5 -46t42.5 -22.5t82 -8.5l-8 -41q-96 6 -260 6q-171 0 -261 -6zM981 436q0 -132 36 -228.5t100 -148t147 -51.5
q154 0 297.5 147.5t232 381.5t88.5 477q0 132 -36 228.5t-100 148t-147 51.5q-154 0 -297.5 -147.5t-232 -381.5t-88.5 -477z" />
    <glyph glyph-name="afii10049" unicode="&#x42f;" horiz-adv-x="1319" 
d="M-125 160l31 14q44 -90 123 -90q46 0 74 25.5t55 78.5l118 252q40 85 92.5 134.5t110.5 71t132 30.5q-105 18 -178.5 64.5t-110.5 112t-37 142.5q0 148 98.5 251t260.5 153.5t351 50.5q29 0 94.5 -3t100.5 -3q172 0 260 6l-10 -41q-72 -3 -108 -16t-57.5 -48.5
t-41.5 -111.5l-270 -1016q-17 -65 -17 -99q0 -30 13.5 -46t42 -22.5t81.5 -8.5l-10 -41q-82 6 -260 6q-164 0 -262 -6l10 41q75 3 111.5 16t58 48t41.5 112l128 482q-88 -30 -164 -34q-63 -12 -108 -29.5t-88 -59t-75 -115.5l-109 -252q-34 -81 -69 -132t-82.5 -78.5
t-114.5 -27.5q-160 0 -215 189zM492 963q0 -133 61.5 -195.5t198.5 -62.5q75 0 158 32l132 496q18 66 18 103q0 39 -21 55t-70 16q-227 0 -352 -112t-125 -332z" />
    <glyph glyph-name="afii10065" unicode="&#x430;" 
d="M-170 0v41q90 23 223 190l824 1029h30l127 -1088q9 -68 37 -98.5t64 -32.5l-11 -41q-82 6 -223 6q-165 0 -246 -6l11 41q63 3 101 14.5t58 39t20 78.5q0 18 -3 40l-31 254h-519l-140 -174q-81 -99 -81 -164q0 -78 124 -88v-41q-61 6 -187 6q-125 0 -178 -6zM325 508h481
l-63 519z" />
    <glyph glyph-name="afii10066" unicode="&#x431;" horiz-adv-x="1249" 
d="M-66 0l9 41q74 3 110.5 16t58.5 48t42 112l215 811q17 65 17 98q0 31 -14 47t-42.5 22.5t-81.5 8.5l10 41q199 -6 588 -6q266 0 383 6q-30 -81 -78 -241q-19 -69 -27 -127h-45q15 86 15 144q0 96 -42.5 136.5t-138.5 40.5h-149q-72 0 -107 -11.5t-56.5 -46.5t-41.5 -112
l-95 -360h210q150 0 244 -39.5t135 -102t41 -135.5q0 -108 -76.5 -193t-204 -136.5t-276.5 -61.5q-23 -2 -71 -2q-39 0 -131 4t-151 4q-163 0 -250 -6zM325 116q0 -38 27.5 -53.5t96.5 -15.5q172 0 268.5 46.5t134 128t37.5 200.5q0 211 -293 211h-142l-110 -416
q-19 -73 -19 -101z" />
    <glyph glyph-name="afii10067" unicode="&#x432;" horiz-adv-x="1255" 
d="M-66 0l9 41q74 3 110.5 16t58.5 48t42 112l217 811q18 65 18 98q0 42 -31 60t-108 18l10 41q83 -6 244 -6q46 0 141 2t148 2q190 0 287.5 -59t97.5 -162q0 -85 -59 -156.5t-154 -122t-207 -79.5q177 -25 256.5 -96.5t79.5 -176.5q0 -109 -77 -198.5t-205.5 -141
t-274.5 -51.5q-49 0 -163 3t-190 3q-163 0 -250 -6zM325 116q0 -38 27.5 -53.5t96.5 -15.5q172 0 268.5 46.5t134 128t37.5 200.5q0 211 -293 211h-142l-110 -416q-19 -73 -19 -101zM463 668h108q120 0 212 46.5t142 124.5t50 169q0 99 -53 147.5t-168 48.5q-63 0 -97 -11.5
t-54 -42t-36 -91.5z" />
    <glyph glyph-name="afii10068" unicode="&#x433;" horiz-adv-x="1106" 
d="M-70 0l11 41q74 3 110.5 16t58.5 48t42 112l219 811q17 66 17 100q0 30 -13.5 45.5t-42 22t-80.5 8.5l10 41q199 -6 592 -6q244 0 348 6q-60 -160 -84 -262q-31 -113 -39 -168h-47q22 121 22 193q0 101 -37.5 145.5t-115.5 44.5h-129q-74 0 -110.5 -11.5t-58.5 -46.5
t-42 -112l-219 -811q-15 -57 -15 -90q0 -34 17 -52t53.5 -25t104.5 -9l-10 -41q-105 6 -299 6q-173 0 -263 -6z" />
    <glyph glyph-name="afii10069" unicode="&#x434;" horiz-adv-x="1303" 
d="M-266 -389q64 176 47 127q58 173 84 303h127q76 0 141 53q61 54 137 180.5t153.5 320t139.5 433.5q18 65 18 100q0 30 -14 45.5t-42.5 22t-82.5 8.5l11 41q64 -6 190 -6q16 0 69 3t113 3q95 0 174.5 -3t102.5 -3q176 0 264 6l-10 -41q-75 -3 -111.5 -16t-58 -47.5
t-41.5 -112.5l-215 -811q-17 -65 -17 -99q0 -31 13.5 -47.5t43 -23t81.5 -6.5h63q-41 -105 -90 -303q0 -2 -27 -127h-45q14 83 14 153q0 127 -48.5 181.5t-137.5 54.5h-602q-112 0 -212 -89t-187 -300h-45zM121 41h418q68 0 103.5 14t55.5 49.5t41 112.5l215 811
q18 65 18 101q0 31 -14 47t-43 22t-81 6h-29q-69 0 -104 -13.5t-56 -49t-41 -113.5q-50 -190 -124 -385t-157.5 -349t-160.5 -224q-21 -17 -41 -29z" />
    <glyph glyph-name="afii10070" unicode="&#x435;" horiz-adv-x="1268" 
d="M-70 0l11 41q74 3 110.5 16t58.5 48t42 112l219 811q17 66 17 100q0 30 -13.5 45.5t-42 22t-80.5 8.5l10 41q193 -6 572 -6q309 0 444 6q-30 -75 -74 -221q-29 -119 -35 -147h-47q19 93 19 149q0 63 -22 100.5t-70 54.5t-127 17h-150q-74 0 -110.5 -11.5t-58.5 -46.5
t-42 -112l-103 -381h191q65 0 110.5 37t70.5 83t51 110h47q-52 -157 -74 -250l-16.5 -63t-20 -83t-18.5 -104h-47q9 58 9 94q0 64 -31.5 99.5t-113.5 35.5h-169l-105 -389q-17 -66 -17 -99q0 -30 13.5 -45t42.5 -20.5t82 -5.5h149q112 0 187.5 34.5t131.5 112.5t107 216h47
q-35 -108 -49 -168q-24 -81 -51 -242q-143 6 -481 6q-379 0 -574 -6z" />
    <glyph glyph-name="afii10072" unicode="&#x436;" horiz-adv-x="1866" 
d="M-88 160l31 14q42 -90 123 -90q40 0 64.5 25.5t49.5 78.5l80 170q62 134 150 198.5t218 91.5q-77 11 -108 56t-31 117q0 37 6 76.5t22 121t16 122.5q0 40 -13 61q-18 29 -63 29h-4q16 -38 16 -66q0 -35 -19.5 -68t-52.5 -54t-69 -21q-64 0 -64 63q0 48 27.5 91.5t74 70.5
t99.5 27q65 0 98 -47q17 -27 17 -73q0 -44 -14 -114t-22.5 -119.5t-8.5 -93.5q0 -67 31 -108.5t106 -50.5q54 20 84 20q32 0 32 -24q0 -10 -2 -15q-11 -41 -53 -41q-25 0 -78 18q-60 -32 -106 -80.5t-88 -146.5l-82 -190q-38 -87 -70.5 -137.5t-75 -75.5t-102.5 -25
q-164 0 -219 189zM504 0l10 41q72 3 108 16t57.5 48.5t41.5 111.5l215 811q17 65 17 98q0 31 -14 47t-42.5 22.5t-81.5 8.5l10 41q84 -6 260 -6q164 0 263 6l-11 -41q-75 -3 -111.5 -16t-58 -48t-41.5 -112l-215 -811q-17 -66 -17 -99q0 -30 13.5 -46t42.5 -22.5t82 -8.5
l-8 -41q-95 6 -260 6q-172 0 -260 -6zM1065 641q7 43 51 43q28 0 70 -18q127 11 187 95.5t116.5 251.5t112.5 214q60 47 122 47q64 0 92.5 -30t28.5 -80q0 -27 -12 -60.5t-39 -57.5t-68 -24q-40 0 -59.5 23.5t-19.5 58.5q0 30 18.5 65t46.5 62h-6q-24 0 -39.5 -6.5
t-34.5 -22.5q-44 -42 -100 -199.5t-116.5 -248.5t-186.5 -107q109 -24 164.5 -86.5t55.5 -188.5q0 -21 -1 -32l-8 -150q-5 -106 71 -106q52 0 87 38t65 122l35 104h41l-53 -158q-39 -112 -100.5 -165.5t-149.5 -53.5q-86 0 -130 49.5t-44 143.5q0 29 2 45l12 151q2 32 2 46
q0 81 -22.5 141.5t-62.5 81.5q-60 -23 -91 -23q-42 0 -37 35z" />
    <glyph glyph-name="afii10073" unicode="&#x437;" horiz-adv-x="1137" 
d="M-12 156q0 37 19.5 70t52 53t69.5 20q38 0 61 -20.5t23 -59.5q0 -45 -32 -83.5t-85 -51.5q8 -20 44.5 -38t88.5 -29t105 -11q112 0 212.5 46t162 129t61.5 188q0 67 -31.5 123t-92.5 92t-146 43q-24 -12 -53 -21.5t-48 -9.5q-16 0 -26.5 10t-10.5 23q0 35 60 35
q34 0 65 -11q105 18 200 72t153.5 133t58.5 168t-59 131.5t-152 42.5q-119 0 -204.5 -53.5t-142.5 -146t-105 -226.5h-46q93 300 119 471h43q-6 -36 -6 -62q0 -56 30 -56q15 0 36 14q72 48 121 74.5t108 42.5t133 16q96 0 169 -26.5t114 -77.5t41 -121q0 -107 -89 -191
t-217.5 -137.5t-252.5 -75.5q121 2 218.5 -34t153.5 -105t56 -162q0 -114 -91 -198.5t-236.5 -129.5t-303.5 -45q-195 0 -289 74q-59 47 -59 111z" />
    <glyph glyph-name="afii10074" unicode="&#x438;" horiz-adv-x="1561" 
d="M-70 0l11 41q74 3 110.5 16t58.5 48t42 112l219 811q17 66 17 100q0 30 -13.5 45.5t-42 22t-80.5 8.5l10 41q83 -6 260 -6q165 0 262 6l-10 -41q-75 -3 -112 -16t-59 -48t-42 -112l-211 -782l885 815q9 41 9 67q0 30 -13.5 45.5t-42 22t-80.5 8.5l10 41q93 -6 258 -6
q176 0 264 6l-10 -41q-75 -3 -112 -16t-59 -48t-42 -112l-219 -811q-17 -66 -17 -99q0 -30 13.5 -46t41.5 -22.5t81 -8.5l-10 -41q-84 6 -260 6q-164 0 -263 -6l11 41q75 3 112 16t59 48t42 112l208 769l-884 -812q-7 -31 -7 -56q0 -30 13.5 -46t41.5 -22.5t81 -8.5l-10 -41
q-93 6 -258 6q-173 0 -263 -6z" />
    <glyph glyph-name="afii10075" unicode="&#x439;" horiz-adv-x="1561" 
d="M-70 0l11 41q74 3 110.5 16t58.5 48t42 112l219 811q17 66 17 100q0 30 -13.5 45.5t-42 22t-80.5 8.5l10 41q83 -6 260 -6q165 0 262 6l-10 -41q-75 -3 -112 -16t-59 -48t-42 -112l-211 -782l885 815q9 41 9 67q0 30 -13.5 45.5t-42 22t-80.5 8.5l10 41q93 -6 258 -6
q176 0 264 6l-10 -41q-75 -3 -112 -16t-59 -48t-42 -112l-219 -811q-17 -66 -17 -99q0 -30 13.5 -46t41.5 -22.5t81 -8.5l-10 -41q-84 6 -260 6q-164 0 -263 -6l11 41q75 3 112 16t59 48t42 112l208 769l-884 -812q-7 -31 -7 -56q0 -30 13.5 -46t41.5 -22.5t81 -8.5l-10 -41
q-93 6 -258 6q-173 0 -263 -6zM635 1505q0 37 18.5 67t50 47t68.5 17q41 0 64.5 -22t23.5 -64q0 -43 -26 -75.5t-70 -47.5q21 -15 72 -25.5t108 -10.5q273 0 479 231l29 -25q-106 -124 -241.5 -186.5t-280.5 -62.5q-113 0 -204 36t-91 121z" />
    <glyph glyph-name="afii10076" unicode="&#x43a;" horiz-adv-x="1380" 
d="M-63 0l10 41q72 3 108 16t57.5 48t41.5 112l215 811q17 65 17 98q0 31 -14 47t-42.5 22.5t-81.5 8.5l10 41q82 -6 260 -6q164 0 262 6l-10 -41q-75 -3 -111.5 -16t-58 -48t-41.5 -112l-215 -811q-17 -66 -17 -99q0 -30 13.5 -46t42.5 -22.5t82 -8.5l-8 -41q-96 6 -260 6
q-172 0 -260 -6zM508 647q0 39 64 39q45 0 127 -20q129 11 189 95.5t116 251.5t112 214q60 47 123 47t92 -30t29 -80q0 -27 -12.5 -60.5t-39 -57.5t-67.5 -24t-60.5 24t-19.5 58q0 29 19 64.5t47 62.5h-6q-25 0 -40.5 -6.5t-33.5 -22.5q-44 -42 -100.5 -199t-117 -248.5
t-186.5 -106.5q109 -24 165 -86t56 -186q0 -23 -1 -36l-5 -176q-1 -37 19 -58.5t49 -21.5q52 0 87 38t65 122l34 104h41l-53 -158q-38 -112 -99.5 -165.5t-150.5 -53.5q-86 0 -130 50t-44 145q0 13 2 43l13 151q2 17 2 51q0 82 -23.5 141.5t-64.5 78.5q-81 -21 -131 -21
q-66 0 -66 37z" />
    <glyph glyph-name="afii10077" unicode="&#x43b;" horiz-adv-x="1305" 
d="M-127 80q0 31 13 64t40.5 56t67.5 23t59 -23.5t19 -58.5q0 -29 -19 -64.5t-47 -62.5h4q75 3 137 54q60 53 134.5 184t152.5 330.5t144 445.5q17 66 17 99q0 31 -13.5 46.5t-42 22t-82.5 8.5l10 41q64 -6 190 -6q16 0 69.5 3t113.5 3q94 0 167.5 -3t108.5 -3q176 0 264 6
l-10 -41q-75 -3 -111.5 -16t-58 -48t-41.5 -112l-215 -811q-17 -66 -17 -99q0 -30 13.5 -46t42.5 -22.5t82 -8.5l-8 -41q-87 6 -262 6q-165 0 -260 -6l8 41q74 3 110.5 16t58.5 48t42 112l215 811q18 65 18 101q0 31 -14 47t-43.5 22t-81.5 6h-29q-69 0 -104 -13.5t-56 -49
t-41 -113.5q-50 -195 -124 -396t-157.5 -360t-160.5 -229q-87 -72 -182 -72q-64 0 -92.5 30t-28.5 79z" />
    <glyph glyph-name="afii10078" unicode="&#x43c;" horiz-adv-x="1774" 
d="M-74 0l11 41q72 3 111.5 20.5t62.5 57.5t45 119l217 819q17 65 17 98q0 31 -14 47t-42.5 22.5t-81.5 8.5l10 41q64 -6 182 -6q101 0 172 6l162 -1056l729 1050h99q157 0 256 6l-11 -41q-75 -3 -111.5 -16t-58 -48t-41.5 -112l-223 -840q-17 -65 -17 -98q0 -31 14 -47
t42.5 -22.5t81.5 -8.5l-8 -41q-96 6 -254 6q-180 0 -266 -6l8 41q75 3 111 16t57.5 48t42.5 112l248 925l-801 -1152h-45l-188 1168l-242 -920q-18 -70 -18 -104q0 -50 34 -70t119 -23l-10 -41q-75 6 -207 6q-126 0 -193 -6z" />
    <glyph glyph-name="afii10079" unicode="&#x43d;" horiz-adv-x="1552" 
d="M-63 0l10 41q72 3 108 16t57.5 48.5t41.5 111.5l215 811q17 65 17 98q0 31 -14 47t-42.5 22.5t-81.5 8.5l10 41q82 -6 260 -6q165 0 262 6l-10 -41q-75 -3 -111.5 -16t-58 -48t-41.5 -112l-101 -381h658l101 381q17 65 17 98q0 31 -14 47t-42.5 22.5t-81.5 8.5l10 41
q91 -6 258 -6q175 0 264 6l-10 -41q-75 -3 -111.5 -16t-58 -48t-41.5 -112l-215 -811q-17 -66 -17 -99q0 -30 13.5 -46t42.5 -22.5t82 -8.5l-8 -41q-87 6 -263 6q-164 0 -260 -6l9 41q74 3 110.5 16t58 48t41.5 112l104 389h-658l-103 -389q-17 -66 -17 -99q0 -30 13.5 -46
t42.5 -22.5t82 -8.5l-8 -41q-96 6 -260 6q-172 0 -260 -6z" />
    <glyph glyph-name="afii10080" unicode="&#x43e;" horiz-adv-x="1499" 
d="M94 465q0 185 104.5 374t291 312t419.5 123q151 0 264 -54.5t176.5 -165t63.5 -274.5q0 -185 -104.5 -374t-291 -312t-419.5 -123q-151 0 -264 54.5t-176.5 165t-63.5 274.5zM313 436q0 -222 81 -325t222 -103q163 0 295.5 116.5t207.5 302t75 382.5q0 222 -81 325
t-222 103q-163 0 -295.5 -116.5t-207.5 -302t-75 -382.5z" />
    <glyph glyph-name="afii10081" unicode="&#x43f;" horiz-adv-x="1552" 
d="M-63 0l10 41q72 3 108 16t57.5 48.5t41.5 111.5l215 811q17 65 17 98q0 31 -14 47t-42.5 22.5t-81.5 8.5l10 41q82 -6 260 -6q51 0 141.5 3t120.5 3h326q27 0 116.5 -3t141.5 -3q175 0 264 6l-10 -41q-75 -3 -111.5 -16t-58 -48t-41.5 -112l-215 -811q-17 -66 -17 -99
q0 -30 13.5 -46t42.5 -22.5t82 -8.5l-8 -41q-87 6 -263 6q-164 0 -260 -6l9 41q74 3 110.5 16t58 48t41.5 112l216 811q17 65 17 100q0 31 -14 47.5t-43 22.5t-81 6h-326q-74 0 -111 -13t-58.5 -49t-41.5 -114l-215 -811q-17 -66 -17 -99q0 -30 13.5 -46t42.5 -22.5t82 -8.5
l-8 -41q-96 6 -260 6q-172 0 -260 -6z" />
    <glyph glyph-name="afii10082" unicode="&#x440;" horiz-adv-x="1192" 
d="M-66 0l9 41q74 3 110.5 16t58.5 48t42 112l215 811q14 65 14 90q0 43 -29 62.5t-106 23.5l10 41q82 -6 252 -6q49 0 148 2t151 2q201 0 304.5 -71.5t103.5 -196.5q0 -135 -95 -243.5t-266.5 -170t-390.5 -61.5h-48l-75 -283q-17 -70 -17 -98q0 -39 29.5 -56.5
t108.5 -21.5l-8 -41q-96 6 -254 6q-180 0 -267 -6zM428 541h57q277 0 401 127t124 340q0 100 -62 148t-198 48q-62 0 -96.5 -15t-56 -52t-40.5 -109z" />
    <glyph glyph-name="afii10083" unicode="&#x441;" horiz-adv-x="1362" 
d="M86 401q0 207 105 410t296.5 333t438.5 130q112 0 180.5 -35.5t122.5 -97.5q15 -18 29 -18q38 0 83 122h45q-64 -189 -133 -471h-45q13 101 13 158q0 78 -33 145q-37 78 -111.5 119t-169.5 41q-162 0 -304 -135.5t-227 -341t-85 -400.5q0 -169 77 -260.5t212 -91.5
q94 0 194 42t174 118q54 56 93 126t92 198h45q-97 -355 -121 -492h-45q6 44 6 70q0 52 -26 52q-16 0 -42 -18q-93 -65 -182.5 -99t-206.5 -34q-149 0 -255.5 50t-163 146.5t-56.5 233.5z" />
    <glyph glyph-name="afii10084" unicode="&#x442;" horiz-adv-x="1251" 
d="M158 1047q0 103 106 159q88 47 232 47q76 0 148 -7.5t225.5 -28.5t258.5 -21q76 0 127 10.5t101 34.5q-51 51 -51 115q0 46 25.5 79t74.5 33q45 0 68.5 -27.5t23.5 -68.5q0 -82 -94 -151q-60 -34 -125 -50t-158 -16q-76 0 -173 11l-269 -928q-19 -66 -19 -102t17 -56
t54 -29t101 -10l-8 -41q-106 6 -305 6q-200 0 -299 -6l8 41q89 3 135.5 19.5t74 56.5t50.5 121l277 954q-170 25 -258 25q-130 0 -193 -35q16 -22 26.5 -55.5t10.5 -63.5q0 -47 -26.5 -83t-75.5 -36q-43 0 -66.5 28t-23.5 75z" />
    <glyph glyph-name="afii10085" unicode="&#x443;" horiz-adv-x="1276" 
d="M68 88q0 29 14.5 56t40 44t57.5 17q37 0 61.5 -25t24.5 -61q0 -33 -23.5 -61t-58.5 -44q32 -10 80 -10q91 0 154.5 34t124.5 110l-234 925q-11 46 -37.5 75t-56 42t-53.5 14l10 41q80 -6 221 -6q158 0 246 6l-10 -41q-50 -2 -78 -9.5t-41 -25t-13 -49.5q0 -29 13 -88
l160 -706l516 706q52 80 52 114q0 28 -29.5 42.5t-96.5 15.5l10 41q59 -6 189 -6q78 0 133 6l-10 -41q-37 -2 -85.5 -34t-91.5 -97l-591 -820q-78 -113 -123 -165.5t-108.5 -84.5t-158.5 -32t-151.5 30t-56.5 87z" />
    <glyph glyph-name="afii10086" unicode="&#x444;" horiz-adv-x="1898" 
d="M61 500q0 141 120 272t351 214t548 83q68 75 164 139t237 135q-115 -57 -230.5 -89.5t-212.5 -32.5q-95 0 -161.5 28t-157.5 88t-150 60q-41 0 -64.5 -20.5t-23.5 -55.5q0 -67 90 -113l-22 -32q-127 55 -127 161q0 76 57.5 119t151.5 43q75 0 139 -25.5t195.5 -99.5
t236.5 -74q102 0 295 72q77 120 129 120q14 0 27 -11t13 -25q0 -50 -150 -106q-194 -122 -299 -285q195 -13 332.5 -62t209.5 -131.5t72 -193.5q0 -136 -105.5 -259.5t-312 -206t-493.5 -95.5q-61 -223 -180 -362.5t-308 -139.5q-83 0 -140 28t-61 85q-1 29 14 57t41.5 45.5
t57.5 17.5q37 0 61.5 -24.5t24.5 -60.5q0 -34 -23 -61.5t-59 -43.5q32 -10 70 -10q88 0 146.5 61t94 157.5t74.5 250.5q-209 8 -359.5 54t-231.5 129.5t-81 199.5zM281 502q0 -177 118.5 -257t342.5 -91l36 143l90 346q65 246 180 389q-249 -3 -422 -73.5t-259 -190
t-86 -266.5zM930 155q241 13 393.5 89t220.5 189t68 245q0 168 -107 250t-311 99q-68 -119 -113 -292z" />
    <glyph glyph-name="afii10087" unicode="&#x445;" horiz-adv-x="1384" 
d="M-67 77q0 30 13 64t40.5 58t68.5 24q40 0 59 -22.5t19 -55.5q0 -30 -18 -67t-47 -64h6q73 3 131 43q92 60 205 194t217 328l-39 349q-13 108 -49.5 170.5t-112.5 62.5q-60 0 -97 -37.5t-67 -122.5l-35 -104h-41l54 158q38 112 99.5 165.5t149.5 53.5q135 0 194 -90.5
t75 -229.5l24 -215q78 148 169.5 273.5t172.5 189.5q91 72 189 72q63 0 92.5 -29t29.5 -76q0 -31 -13 -65t-40.5 -58t-68.5 -24q-40 0 -59 22.5t-19 55.5q0 30 18 67t47 64h-6q-68 -3 -131 -43q-80 -59 -179.5 -190.5t-194.5 -318.5l40 -362q13 -108 50 -170.5t112 -62.5
q60 0 97 37.5t67 122.5l35 104h41l-53 -158q-39 -112 -100.5 -165.5t-149.5 -53.5q-135 0 -194 90.5t-75 229.5l-25 221q-82 -144 -189 -272t-201 -197q-99 -72 -189 -72q-63 0 -92.5 29.5t-29.5 76.5z" />
    <glyph glyph-name="afii10088" unicode="&#x446;" horiz-adv-x="1565" 
d="M-63 0l10 41q74 3 110 16t56.5 47.5t40.5 112.5l215 811q17 66 17 99q0 30 -13.5 46t-42.5 22.5t-82 8.5l8 41q86 -6 262 -6q165 0 260 6l-8 -41q-74 -3 -110.5 -16t-58.5 -48t-42 -112l-215 -811q-18 -63 -18 -99q0 -46 31 -61.5t108 -15.5h326q73 0 110.5 13t58.5 49
t41 114l216 811q17 66 17 99q0 30 -13.5 46t-42.5 22.5t-82 8.5l8 41q94 -6 260 -6q175 0 264 6l-10 -41q-72 -3 -109 -16t-59.5 -48.5t-42.5 -111.5l-215 -811q-17 -65 -17 -99q0 -46 30.5 -61.5t107.5 -15.5h63q-41 -105 -90 -303q-11 -46 -26 -127h-46q15 88 15 155
q0 240 -187 240q-51 0 -141.5 -3t-120.5 -3h-325q-28 0 -117 3t-141 3q-172 0 -260 -6z" />
    <glyph glyph-name="afii10089" unicode="&#x447;" horiz-adv-x="1348" 
d="M182 1202l11 43q188 -8 249 -8q60 0 232 8l-10 -43q-54 0 -87 -14t-53.5 -45.5t-36.5 -87.5l-45 -160q-26 -94 -26 -158q0 -86 49 -132t162 -46q72 0 150.5 18.5t127.5 48.5l109 402q17 66 17 100q0 30 -13.5 45.5t-42 22t-80.5 8.5l10 41q84 -6 260 -6q165 0 262 6
l-10 -41q-75 -3 -112 -16t-59 -48t-42 -112l-219 -811q-17 -66 -17 -99q0 -30 13.5 -46t41.5 -22.5t81 -8.5l-10 -41q-84 6 -260 6q-193 0 -304 -6l11 41q93 3 138 16t70.5 48t45.5 112l101 373q-68 -38 -172.5 -67t-197.5 -29q-165 0 -243 100q-50 63 -50 158q0 66 23 149
l41 154q11 42 11 68q0 44 -30 61.5t-96 17.5z" />
    <glyph glyph-name="afii10090" unicode="&#x448;" horiz-adv-x="1970" 
d="M-70 0l11 41q74 3 110.5 16t58.5 48t42 112l219 811q17 66 17 100q0 30 -13.5 45.5t-42 22t-80.5 8.5l10 41q82 -6 260 -6q149 0 242 6l-10 -41q-67 -3 -99.5 -16t-53 -48t-40.5 -112l-219 -811q-18 -70 -18 -101q0 -30 13.5 -46.5t42.5 -22.5t81 -6h110q73 0 110.5 13
t60 49.5t42.5 113.5l220 811q19 74 19 106q0 27 -11.5 41.5t-36 20.5t-70.5 8l10 41q87 -6 238 -6q160 0 244 6l-11 -41q-67 -3 -99.5 -16t-52.5 -47.5t-40 -112.5l-219 -811q-18 -72 -18 -102t13.5 -46t42.5 -22t81 -6h110q73 0 110.5 13t60 49.5t42.5 113.5l219 811
q19 74 19 107q0 39 -25.5 52.5t-91.5 16.5l10 41q87 -6 238 -6q176 0 264 6l-10 -41q-76 -3 -112.5 -16t-58.5 -48t-42 -112l-219 -811q-18 -70 -18 -100t13.5 -45.5t42 -22t80.5 -8.5l-10 -41q-82 6 -260 6q-53 0 -161 -3t-154 -3q-73 0 -177 3t-137 3t-142 -3t-183 -3
q-49 0 -153.5 3t-155.5 3q-173 0 -263 -6z" />
    <glyph glyph-name="afii10091" unicode="&#x449;" horiz-adv-x="1976" 
d="M-70 0l13 41q74 3 110 16t58 48t43 112l217 811q18 65 18 100q0 30 -13.5 45.5t-42 22t-81.5 8.5l10 41q86 -6 262 -6q151 0 240 6l-10 -41q-66 -3 -98.5 -16t-53 -47.5t-41.5 -112.5l-217 -811q-19 -70 -19 -102q0 -44 31 -59t107 -15h110q73 0 110 13t59.5 49t43.5 114
l218 811q20 72 20 106q0 27 -12 41.5t-36.5 20.5t-70.5 8l10 41q90 -6 240 -6q161 0 242 6l-11 -41q-67 -3 -99 -16t-52 -47.5t-41 -112.5l-217 -811q-19 -70 -19 -102q0 -30 13.5 -46t43 -22t81.5 -6h110q73 0 110 13t59.5 49t43.5 114l217 811q20 72 20 107
q0 39 -25.5 52.5t-92.5 16.5l10 41q90 -6 240 -6q177 0 262 6l-10 -41q-75 -3 -112 -16t-58.5 -47.5t-42.5 -112.5l-217 -811q-18 -64 -18 -100q0 -30 13.5 -45.5t42 -22t81.5 -8.5h22q-60 -160 -84 -262q-32 -117 -39 -168h-47q24 124 24 205q0 101 -37.5 144.5
t-115.5 43.5q-69 0 -166 -2t-145 -2q-73 0 -177 3t-137 3t-142 -3t-183 -3q-49 0 -153.5 3t-155.5 3q-176 0 -263 -6z" />
    <glyph glyph-name="afii10092" unicode="&#x44a;" horiz-adv-x="1483" 
d="M150 1018q0 100 106 162q112 65 276 65q24 0 109.5 -3t163.5 -3q151 0 250 6l-11 -41q-75 -3 -111.5 -16t-57.5 -48t-41 -112l-80 -299h63q186 0 304 -28.5t178.5 -98t60.5 -190.5q0 -133 -79.5 -226t-205.5 -139.5t-264 -46.5q-48 0 -162 3t-190 3q-164 0 -250 -6l8 41
q74 3 110.5 16t58.5 48t42 112l215 811q19 73 19 107q0 43 -27 58t-94 15q-164 0 -236 -55q16 -22 26.5 -55.5t10.5 -63.5q0 -47 -26.5 -83t-75.5 -36q-44 0 -67 27.5t-23 75.5zM600 118q0 -39 27 -55t96 -16q229 0 330.5 99.5t101.5 295.5q0 87 -33 141.5t-112.5 82.5
t-218.5 28h-46l-127 -477q-18 -67 -18 -99z" />
    <glyph glyph-name="afii10093" unicode="&#x44b;" horiz-adv-x="1913" 
d="M-66 0l9 41q74 3 110.5 16t58.5 48t42 112l215 811q17 65 17 98q0 31 -14 47t-42.5 22.5t-81.5 8.5l10 41q82 -6 260 -6q165 0 262 6l-10 -41q-75 -3 -111.5 -16t-58 -48t-41.5 -112l-79 -299h63q186 0 303.5 -28.5t178 -98t60.5 -190.5q0 -133 -79 -226t-205 -139.5
t-264 -46.5q-49 0 -163 3t-190 3q-163 0 -250 -6zM325 117q0 -38 27.5 -54t96.5 -16q229 0 330.5 99.5t101.5 295.5q0 87 -33 141.5t-112.5 82.5t-219.5 28h-46l-126 -477q-19 -73 -19 -100zM1145 0l10 41q72 3 108 16t57.5 48.5t41.5 111.5l215 811q17 65 17 98
q0 31 -14 47t-42.5 22.5t-81.5 8.5l10 41q82 -6 260 -6q165 0 262 6l-10 -41q-75 -3 -111.5 -16t-58 -48t-41.5 -112l-215 -811q-17 -66 -17 -99q0 -30 13.5 -46t42.5 -22.5t82 -8.5l-8 -41q-96 6 -260 6q-172 0 -260 -6z" />
    <glyph glyph-name="afii10094" unicode="&#x44c;" horiz-adv-x="1208" 
d="M-66 0l9 41q74 3 110.5 16t58.5 48t42 112l215 811q17 65 17 98q0 31 -14 47t-42.5 22.5t-81.5 8.5l10 41q82 -6 260 -6q165 0 262 6l-10 -41q-75 -3 -111.5 -16t-58 -48t-41.5 -112l-79 -299h63q186 0 303.5 -28.5t178 -98t60.5 -190.5q0 -133 -79 -226t-205 -139.5
t-264 -46.5q-49 0 -163 3t-190 3q-163 0 -250 -6zM325 117q0 -38 27.5 -54t96.5 -16q229 0 330.5 99.5t101.5 295.5q0 87 -33 141.5t-112.5 82.5t-219.5 28h-46l-126 -477q-19 -73 -19 -100z" />
    <glyph glyph-name="afii10095" unicode="&#x44d;" horiz-adv-x="1368" 
d="M-20 0q66 193 124 424h46q-6 -42 -6 -87q0 -101 32 -169q34 -73 111 -116.5t178 -43.5q144 0 271 87.5t213.5 239t114.5 335.5q-47 -77 -127 -118.5t-167 -41.5q-59 0 -105 17t-131 63.5t-157 46.5q-48 0 -100 -22t-95 -62l-20 25q53 60 95 97t93 59t113 22
q85 0 163.5 -42.5t124.5 -63.5t117 -21q59 0 115.5 20.5t86.5 68.5q5 52 5 105q0 206 -77 310t-216 104q-90 0 -190 -42t-174 -118q-54 -53 -88 -101t-64 -112h-45q61 223 88 381h45q-6 -42 -6 -69q0 -53 25 -53q14 0 43 18q69 45 118.5 71.5t116 44t150.5 17.5
q151 0 258.5 -57t164 -165t56.5 -259q0 -214 -108 -403t-297 -304t-422 -115q-88 0 -145.5 17t-92.5 43.5t-78 72.5q-16 18 -31 18q-36 0 -81 -122h-45z" />
    <glyph glyph-name="afii10096" unicode="&#x44e;" horiz-adv-x="1968" 
d="M-63 0l10 41q72 3 108 16t57.5 48.5t41.5 111.5l215 811q17 65 17 98q0 31 -14 47t-42.5 22.5t-81.5 8.5l10 41q82 -6 260 -6q165 0 262 6l-10 -41q-75 -3 -111.5 -16t-58 -48t-41.5 -112l-101 -381h296q42 164 141.5 307.5t245.5 231.5t319 88q126 0 220.5 -52.5
t148 -158.5t53.5 -262q0 -190 -94 -383.5t-262 -320t-377 -126.5q-126 0 -220.5 52.5t-148 158.5t-53.5 262q0 79 17 162h-297l-103 -389q-17 -66 -17 -99q0 -30 13.5 -46t42.5 -22.5t82 -8.5l-8 -41q-96 6 -260 6q-172 0 -260 -6zM946 416q0 -211 59 -309.5t162 -98.5
q139 0 253 119.5t178.5 309.5t64.5 392q0 211 -59 309.5t-162 98.5q-139 0 -253 -119.5t-178.5 -309.5t-64.5 -392z" />
    <glyph glyph-name="afii10097" unicode="&#x44f;" horiz-adv-x="1257" 
d="M-125 160l31 14q44 -90 123 -90q40 0 64.5 25.5t49.5 78.5l80 170q51 109 126.5 166t208.5 85q-79 10 -146 43t-108.5 93t-41.5 146q0 128 91.5 207.5t230.5 113t290 33.5q33 0 94 -3t130 -3q144 0 233 6l-10 -41q-72 -3 -108 -16t-57.5 -48t-41.5 -112l-215 -811
q-17 -65 -17 -98q0 -31 14 -47t42.5 -22.5t81.5 -8.5l-10 -41q-84 6 -256 6q-168 0 -267 -6l11 41q75 3 111.5 16t58 48t41.5 112l110 416q-43 -13 -88 -20q-86 -17 -142.5 -40.5t-96 -65t-68.5 -108.5l-82 -190q-38 -87 -70.5 -137.5t-75 -75.5t-102.5 -25q-164 0 -219 189
zM469 862q0 -110 51.5 -164.5t163.5 -54.5q72 0 145 26l95 359q18 67 18 103q0 43 -23.5 57t-78.5 14q-110 0 -193.5 -39t-130.5 -115.5t-47 -185.5z" />
    <glyph glyph-name="afii10071" unicode="&#x451;" horiz-adv-x="1268" 
d="M-70 0l11 41q74 3 110.5 16t58.5 48t42 112l219 811q17 66 17 100q0 30 -13.5 45.5t-42 22t-80.5 8.5l10 41q193 -6 572 -6q309 0 444 6q-30 -75 -74 -221q-29 -119 -35 -147h-47q19 93 19 149q0 63 -22 100.5t-70 54.5t-127 17h-150q-74 0 -110.5 -11.5t-58.5 -46.5
t-42 -112l-103 -381h191q65 0 110.5 37t70.5 83t51 110h47q-52 -157 -74 -250l-16.5 -63t-20 -83t-18.5 -104h-47q9 58 9 94q0 64 -31.5 99.5t-113.5 35.5h-169l-105 -389q-17 -66 -17 -99q0 -30 13.5 -45t42.5 -20.5t82 -5.5h149q112 0 187.5 34.5t131.5 112.5t107 216h47
q-35 -108 -49 -168q-24 -81 -51 -242q-143 6 -481 6q-379 0 -574 -6zM491 1481q0 31 19 62t51 51t68 20q43 0 72.5 -30t29.5 -73q0 -33 -19 -64.5t-50.5 -51t-67.5 -19.5q-46 0 -74.5 29.5t-28.5 75.5zM926 1481q0 31 19 62t50.5 51t67.5 20q43 0 72.5 -30t29.5 -73
q0 -33 -19 -64.5t-50.5 -51t-67.5 -19.5q-45 0 -73.5 30t-28.5 75z" />
    <glyph glyph-name="afii10099" unicode="&#x452;" horiz-adv-x="1579" 
d="M158 0l10 41q92 3 137 17.5t70.5 54t48.5 125.5l258 964q-107 15 -178 15q-126 0 -189 -35q16 -22 26.5 -55.5t10.5 -63.5q0 -47 -26 -83t-76 -36q-42 0 -66 28t-24 75q0 103 106 159q88 47 230 47q72 0 141.5 -7.5t211.5 -28.5t232 -21q69 0 112 10.5t83 34.5
q-51 51 -51 115q0 46 25.5 79t74.5 33q45 0 68.5 -27.5t23.5 -68.5q0 -82 -94 -151q-49 -35 -108.5 -50.5t-139.5 -15.5q-83 0 -210 19l-148 -552q77 56 184.5 93t216.5 37q103 0 180 -36t118.5 -104t41.5 -163q0 -123 -68 -233.5t-188 -177.5t-268 -67q-104 0 -170 35.5
t-66 108.5q0 38 18 70.5t50.5 52.5t73.5 20q39 0 61.5 -20t22.5 -56q0 -46 -33.5 -87t-83.5 -58q22 -35 104 -35q113 0 193.5 65.5t121 166.5t40.5 206q0 246 -236 246q-86 0 -176 -29.5t-148 -77.5l-161 -602q-94 29 -256 29q-64 0 -131 -6z" />
    <glyph glyph-name="afii10100" unicode="&#x453;" horiz-adv-x="1106" 
d="M-70 0l11 41q74 3 110.5 16t58.5 48t42 112l219 811q17 66 17 100q0 30 -13.5 45.5t-42 22t-80.5 8.5l10 41q199 -6 592 -6q244 0 348 6q-60 -160 -84 -262q-31 -113 -39 -168h-47q22 121 22 193q0 101 -37.5 145.5t-115.5 44.5h-129q-74 0 -110.5 -11.5t-58.5 -46.5
t-42 -112l-219 -811q-15 -57 -15 -90q0 -34 17 -52t53.5 -25t104.5 -9l-10 -41q-105 6 -299 6q-173 0 -263 -6zM590 1399q76 51 133 93l140 106.5t128 91.5q40 23 78 23q43 0 58 -34q4 -9 4 -20q0 -25 -21.5 -49.5t-50.5 -40.5q-44 -26 -125.5 -56l-157 -60t-172.5 -77z" />
    <glyph glyph-name="afii10101" unicode="&#x454;" horiz-adv-x="1356" 
d="M86 401q0 207 105 410t296.5 333t438.5 130q112 0 180.5 -35.5t122.5 -97.5q15 -18 29 -18q38 0 83 122h45q-32 -94 -54 -168.5t-60 -234.5h-45q3 150 -39 235q-39 79 -113 119.5t-168 40.5q-129 0 -247.5 -89t-206 -234t-129.5 -310q47 73 125 112.5t161 39.5
q59 0 105 -17t131.5 -63.5t157.5 -46.5q48 0 100 22t94 62l21 -25q-54 -60 -96 -97t-92.5 -59t-112.5 -22q-85 0 -163.5 42.5t-125 63.5t-117.5 21q-59 0 -115 -20.5t-86 -67.5q-20 -98 -20 -189q0 -169 77 -260.5t212 -91.5q94 0 194 42t174 118q86 88 158 240h45
q-50 -153 -94 -408h-45q6 44 6 70q0 52 -26 52q-16 0 -42 -18q-93 -65 -182.5 -99t-206.5 -34q-149 0 -255.5 50t-163 146.5t-56.5 233.5z" />
    <glyph glyph-name="afii10102" unicode="&#x455;" horiz-adv-x="1153" 
d="M-35 -14q69 163 139 491h41q-18 -104 -18 -151q0 -150 82.5 -232t255.5 -82q138 0 217.5 54t79.5 165q0 71 -31.5 127t-80 98t-126.5 95q-99 68 -151.5 110.5t-89.5 105.5t-37 148q0 113 64 194.5t168.5 123t223.5 41.5q85 0 142 -21t119 -65q48 -37 67 -37q17 0 32 25
t36 84h41q-74 -184 -121 -418h-41q12 59 12 114q0 124 -72 201.5t-223 77.5q-124 0 -203 -55.5t-79 -161.5q0 -69 34 -124t88 -98.5t144 -101.5q103 -67 160 -112.5t96 -108.5t39 -145q0 -117 -76.5 -197.5t-195.5 -120t-244 -39.5q-77 0 -132.5 14t-90 33.5t-70.5 47.5
q-40 30 -72 30q-26 0 -42 -23t-44 -87h-41z" />
    <glyph glyph-name="afii10103" unicode="&#x456;" horiz-adv-x="705" 
d="M-63 0l10 41q72 3 108 16t57.5 48.5t41.5 111.5l215 811q17 65 17 98q0 31 -14 47t-42.5 22.5t-81.5 8.5l10 41q82 -6 260 -6q165 0 262 6l-10 -41q-75 -3 -111.5 -16t-58 -48t-41.5 -112l-215 -811q-17 -66 -17 -99q0 -30 13.5 -46t42.5 -22.5t82 -8.5l-8 -41
q-96 6 -260 6q-172 0 -260 -6z" />
    <glyph glyph-name="afii10104" unicode="&#x457;" horiz-adv-x="705" 
d="M-63 0l10 41q72 3 108 16t57.5 48.5t41.5 111.5l215 811q17 65 17 98q0 31 -14 47t-42.5 22.5t-81.5 8.5l10 41q82 -6 260 -6q165 0 262 6l-10 -41q-75 -3 -111.5 -16t-58 -48t-41.5 -112l-215 -811q-17 -66 -17 -99q0 -30 13.5 -46t42.5 -22.5t82 -8.5l-8 -41
q-96 6 -260 6q-172 0 -260 -6zM215 1481q0 31 19 62t51 51t68 20q43 0 72.5 -30t29.5 -73q0 -33 -19 -64.5t-50.5 -51t-67.5 -19.5q-46 0 -74.5 29.5t-28.5 75.5zM650 1481q0 31 19 62t50.5 51t67.5 20q43 0 72.5 -30t29.5 -73q0 -33 -19 -64.5t-50.5 -51t-67.5 -19.5
q-45 0 -73.5 30t-28.5 75z" />
    <glyph glyph-name="afii10105" unicode="&#x458;" horiz-adv-x="1260" 
d="M43 -268q0 29 14.5 55.5t40.5 43.5t58 17q37 0 61.5 -24.5t24.5 -60.5q0 -34 -23 -61.5t-59 -43.5q30 -10 71 -10q107 0 168 56t93.5 142t99.5 308l67 225q16 55 35 104h-258l6 41h267q56 140 128 242t150 175.5t219 191.5q-95 -58 -179.5 -90.5t-164.5 -32.5
q-95 0 -192 38t-154 57t-137 19q-68 0 -102 -35.5t-31 -99.5q3 -121 151 -149l-6 -41q-93 16 -157.5 72.5t-67.5 164.5q-3 73 25 130t82.5 89.5t129.5 32.5q73 0 130 -28t170.5 -109.5t218.5 -81.5q78 0 140.5 21.5t160.5 70.5q77 120 128 120q14 0 27 -11t13 -25
q0 -49 -150 -106q-87 -71 -148 -158.5t-105.5 -194t-92.5 -262.5h205l-6 -41h-211l-4 -12l-144 -481q-32 -106 -97 -191t-163.5 -134.5t-222.5 -49.5q-96 0 -152.5 30t-56.5 87z" />
    <glyph glyph-name="afii10106" unicode="&#x459;" horiz-adv-x="1796" 
d="M-127 80q0 31 13 64t40.5 56t67.5 23t59 -23.5t19 -58.5q0 -29 -19 -64.5t-47 -62.5h4q75 0 137 54q61 50 135.5 181t151.5 331t144 448q17 66 17 99q0 31 -13.5 46.5t-42 22t-82.5 8.5l10 41q64 -6 190 -6q16 0 69.5 3t113.5 3q94 0 167.5 -3t108.5 -3q176 0 264 6
l-10 -41q-75 -3 -111.5 -16t-58 -48t-41.5 -112l-103 -387h64q185 0 303 -25t179 -85t61 -164q0 -121 -75 -203.5t-199.5 -123t-272.5 -40.5q-46 0 -148.5 3t-191.5 3q-155 0 -241 -6l8 41q74 3 110.5 16t58.5 48t42 112l215 811q18 65 18 101q0 31 -14 47t-43.5 22t-81.5 6
h-29q-69 0 -104 -13.5t-56 -49t-41 -113.5q-51 -198 -124 -399t-156.5 -359.5t-161.5 -226.5q-80 -72 -182 -72q-64 0 -92.5 30t-28.5 79zM925 117q0 -39 30 -54.5t108 -15.5q199 0 297 85t98 245q0 81 -30 130t-109 74t-225 25h-47l-103 -389q-19 -73 -19 -100z" />
    <glyph glyph-name="afii10107" unicode="&#x45a;" horiz-adv-x="2044" 
d="M-63 0l10 41q72 3 108 16t57.5 48.5t41.5 111.5l215 811q17 65 17 98q0 31 -14 47t-42.5 22.5t-81.5 8.5l10 41q82 -6 260 -6q165 0 262 6l-10 -41q-75 -3 -111.5 -16t-58 -48t-41.5 -112l-101 -381h658l101 381q17 65 17 98q0 31 -13.5 47t-42.5 22.5t-82 8.5l10 41
q83 -6 256 -6q169 0 266 6l-10 -41q-75 -3 -111.5 -16t-58 -48t-41.5 -112l-103 -387h64q185 0 303 -25t179 -85t61 -164q0 -121 -75 -203.5t-199.5 -123t-272.5 -40.5q-47 0 -149.5 3t-190.5 3q-155 0 -242 -6l9 41q74 3 110.5 16t58 48t41.5 112l104 389h-658l-103 -389
q-17 -66 -17 -99q0 -30 13.5 -46t42.5 -22.5t82 -8.5l-8 -41q-96 6 -260 6q-172 0 -260 -6zM1173 117q0 -39 30 -54.5t108 -15.5q199 0 297 85t98 245q0 81 -30.5 130t-109.5 74t-225 25h-46l-103 -389q-19 -73 -19 -100z" />
    <glyph glyph-name="afii10108" unicode="&#x45b;" horiz-adv-x="1098" 
d="M-63 0l10 41q72 3 108 16t57.5 48.5t41.5 111.5l215 811q17 65 17 98q0 31 -14 47t-42.5 22.5t-81.5 8.5l10 41q82 -6 260 -6q165 0 262 6l-10 -41q-75 -3 -111.5 -16t-58 -48t-41.5 -112l-101 -381h658l101 381q17 65 17 98q0 31 -14 47t-42.5 22.5t-81.5 8.5l10 41
q91 -6 258 -6q175 0 264 6l-10 -41q-75 -3 -111.5 -16t-58 -48t-41.5 -112l-215 -811q-17 -66 -17 -99q0 -30 13.5 -46t42.5 -22.5t82 -8.5l-8 -41q-87 6 -263 6q-164 0 -260 -6l9 41q74 3 110.5 16t58 48t41.5 112l104 389h-658l-103 -389q-17 -66 -17 -99q0 -30 13.5 -46
t42.5 -22.5t82 -8.5l-8 -41q-96 6 -260 6q-172 0 -260 -6zM166 1245l12 41h705l-13 -41h-704z" />
    <glyph glyph-name="afii10109" unicode="&#x45c;" horiz-adv-x="1380" 
d="M-63 0l10 41q72 3 108 16t57.5 48t41.5 112l215 811q17 65 17 98q0 31 -14 47t-42.5 22.5t-81.5 8.5l10 41q82 -6 260 -6q164 0 262 6l-10 -41q-75 -3 -111.5 -16t-58 -48t-41.5 -112l-215 -811q-17 -66 -17 -99q0 -30 13.5 -46t42.5 -22.5t82 -8.5l-8 -41q-96 6 -260 6
q-172 0 -260 -6zM508 647q0 39 64 39q45 0 127 -20q129 11 189 95.5t116 251.5t112 214q60 47 123 47t92 -30t29 -80q0 -27 -12.5 -60.5t-39 -57.5t-67.5 -24t-60.5 24t-19.5 58q0 29 19 64.5t47 62.5h-6q-25 0 -40.5 -6.5t-33.5 -22.5q-44 -42 -100.5 -199t-117 -248.5
t-186.5 -106.5q109 -24 165 -86t56 -186q0 -23 -1 -36l-5 -176q-1 -37 19 -58.5t49 -21.5q52 0 87 38t65 122l34 104h41l-53 -158q-38 -112 -99.5 -165.5t-150.5 -53.5q-86 0 -130 50t-44 145q0 13 2 43l13 151q2 17 2 51q0 82 -23.5 141.5t-64.5 78.5q-81 -21 -131 -21
q-66 0 -66 37zM666 1399q76 51 133 93l140 106.5t128 91.5q40 23 78 23q43 0 58 -34q4 -9 4 -20q0 -25 -21.5 -49.5t-50.5 -40.5q-44 -26 -125.5 -56l-157 -60t-172.5 -77z" />
    <glyph glyph-name="afii10110" unicode="&#x45e;" horiz-adv-x="1276" 
d="M68 88q0 29 14.5 56t40 44t57.5 17q37 0 61.5 -25t24.5 -61q0 -33 -23.5 -61t-58.5 -44q32 -10 80 -10q91 0 154.5 34t124.5 110l-234 925q-11 46 -37.5 75t-56 42t-53.5 14l10 41q80 -6 221 -6q158 0 246 6l-10 -41q-50 -2 -78 -9.5t-41 -25t-13 -49.5q0 -29 13 -88
l160 -706l516 706q52 80 52 114q0 28 -29.5 42.5t-96.5 15.5l10 41q59 -6 189 -6q78 0 133 6l-10 -41q-37 -2 -85.5 -34t-91.5 -97l-591 -820q-78 -113 -123 -165.5t-108.5 -84.5t-158.5 -32t-151.5 30t-56.5 87zM491 1505q0 37 18.5 67t50 47t68.5 17q41 0 64.5 -22
t23.5 -64q0 -43 -26 -75.5t-70 -47.5q21 -15 72 -25.5t108 -10.5q273 0 479 231l29 -25q-106 -124 -241.5 -186.5t-280.5 -62.5q-113 0 -204 36t-91 121z" />
    <glyph glyph-name="afii10193" unicode="&#x45f;" horiz-adv-x="1552" 
d="M-63 0l10 41q74 3 110 16t56.5 47.5t40.5 112.5l215 811q17 66 17 99q0 30 -13.5 46t-42.5 22.5t-82 8.5l8 41q86 -6 262 -6q165 0 260 6l-8 -41q-74 -3 -110.5 -16t-58.5 -48t-42 -112l-215 -811q-18 -63 -18 -99q0 -46 31 -61.5t108 -15.5h326q73 0 110.5 13t58.5 49
t41 114l216 811q17 66 17 99q0 30 -13.5 46t-42.5 22.5t-82 8.5l8 41q95 -6 260 -6q176 0 264 6l-10 -41q-72 -3 -109 -16t-59.5 -48.5t-42.5 -111.5l-215 -811q-17 -66 -17 -99q0 -30 13.5 -46t42.5 -22.5t82 -8.5l-8 -41q-87 6 -263 6q-51 0 -119.5 -2.5t-100.5 -2.5
q-68 -9 -113 -45t-78.5 -100t-79.5 -184h-47q26 130 26 193t-25 95t-84 40q-33 1 -102.5 3.5t-121.5 2.5q-172 0 -260 -6z" />
    <glyph glyph-name="afii10050" unicode="&#x490;" horiz-adv-x="1030" 
d="M-72 0l11 41q75 3 111 16t57.5 48t42.5 112l272 1016q17 66 17 99q0 30 -13.5 46t-41.5 22.5t-81 8.5l10 41q107 -6 308 -6q50 0 181.5 3t182.5 3q84 0 133.5 29.5t84.5 95t81 197.5h47q-17 -44 -39 -127q-32 -128 -51 -242h-418q-74 0 -110.5 -12t-58.5 -46.5
t-42 -111.5l-272 -1016q-16 -61 -16 -91q0 -34 17 -51.5t54 -24.5t105 -9l-11 -41q-106 6 -301 6q-173 0 -260 -6z" />
    <glyph glyph-name="afii10098" unicode="&#x491;" horiz-adv-x="1069" 
d="M-68 0l9 41q74 3 110.5 16t58.5 48t42 112l219 811q17 66 17 100q0 30 -13.5 45.5t-42 22t-80.5 8.5l10 41q90 -6 264 -6q41 0 190.5 3t217.5 3q83 0 132.5 29.5t84.5 94.5t82 198h47q-18 -47 -41 -127q-32 -125 -49 -242h-418q-74 0 -110.5 -11.5t-58.5 -46.5t-42 -112
l-219 -811q-16 -61 -16 -91q0 -34 17.5 -51.5t54.5 -24.5t106 -9l-8 -41q-108 6 -306 6q-171 0 -258 -6z" />
    <glyph glyph-name="uni2000" unicode="&#x2000;" horiz-adv-x="959" 
 />
    <glyph glyph-name="uni2001" unicode="&#x2001;" horiz-adv-x="1918" 
 />
    <glyph glyph-name="uni2002" unicode="&#x2002;" horiz-adv-x="959" 
 />
    <glyph glyph-name="uni2003" unicode="&#x2003;" horiz-adv-x="1918" 
 />
    <glyph glyph-name="uni2004" unicode="&#x2004;" horiz-adv-x="639" 
 />
    <glyph glyph-name="uni2005" unicode="&#x2005;" horiz-adv-x="479" 
 />
    <glyph glyph-name="uni2006" unicode="&#x2006;" horiz-adv-x="319" 
 />
    <glyph glyph-name="uni2007" unicode="&#x2007;" horiz-adv-x="319" 
 />
    <glyph glyph-name="uni2008" unicode="&#x2008;" horiz-adv-x="239" 
 />
    <glyph glyph-name="uni2009" unicode="&#x2009;" horiz-adv-x="383" 
 />
    <glyph glyph-name="uni200A" unicode="&#x200a;" horiz-adv-x="106" 
 />
    <glyph glyph-name="uni2010" unicode="&#x2010;" horiz-adv-x="1032" 
d="M109 461l30 119h740l-31 -119h-739z" />
    <glyph glyph-name="uni2011" unicode="&#x2011;" horiz-adv-x="1032" 
d="M109 461l30 119h740l-31 -119h-739z" />
    <glyph glyph-name="figuredash" unicode="&#x2012;" horiz-adv-x="1032" 
d="M109 461l30 119h740l-31 -119h-739z" />
    <glyph glyph-name="endash" unicode="&#x2013;" horiz-adv-x="1491" 
d="M102 500l21 82h1231l-23 -82h-1229z" />
    <glyph glyph-name="emdash" unicode="&#x2014;" horiz-adv-x="2052" 
d="M102 500l21 82h1792l-23 -82h-1790z" />
    <glyph glyph-name="quoteleft" unicode="&#x2018;" horiz-adv-x="489" 
d="M252 1104q0 71 36 143t104 135.5t161 108.5l10 -28q-97 -59 -154 -129t-63 -140q59 52 107 52q36 0 56.5 -19.5t20.5 -52.5q0 -43 -27.5 -87.5t-71.5 -73.5t-89 -29t-67.5 35t-22.5 85z" />
    <glyph glyph-name="quoteright" unicode="&#x2019;" horiz-adv-x="492" 
d="M256 975q97 59 154 129t63 140q-59 -52 -107 -52q-36 0 -56.5 19.5t-20.5 52.5q0 43 27.5 87.5t71.5 73.5t89 29t67.5 -35t22.5 -85q0 -71 -36 -143t-104 -135.5t-161 -108.5z" />
    <glyph glyph-name="quotesinglbase" unicode="&#x201a;" horiz-adv-x="516" 
d="M-47 -246q97 59 154 129t63 140q-59 -52 -107 -52q-36 0 -56.5 19.5t-20.5 52.5q0 43 27.5 87.5t71.5 73.5t89 29t67.5 -35t22.5 -85q0 -71 -36 -143t-104 -135.5t-161 -108.5z" />
    <glyph glyph-name="quotedblleft" unicode="&#x201c;" horiz-adv-x="817" 
d="M254 1106q0 71 36 143t104.5 135.5t160.5 108.5l11 -28q-97 -59 -154 -129t-64 -140q59 52 107 52q27 0 42 -19.5t15 -52.5q0 -43 -24.5 -87.5t-63.5 -73.5t-80 -29q-90 0 -90 120zM594 1106q0 71 36 143t104.5 135.5t160.5 108.5l11 -28q-97 -59 -154 -129t-64 -140
q59 52 107 52q27 0 42 -19.5t15 -52.5q0 -43 -24.5 -87.5t-63.5 -73.5t-80 -29q-90 0 -90 120z" />
    <glyph glyph-name="quotedblright" unicode="&#x201d;" horiz-adv-x="821" 
d="M247 981q97 59 154 129t64 140q-59 -52 -107 -52q-27 0 -42 19.5t-15 52.5q0 43 24.5 87.5t63.5 73.5t80 29q90 0 90 -120q0 -71 -36 -143t-104.5 -135.5t-160.5 -108.5zM587 981q97 59 154 129t64 140q-59 -52 -107 -52q-27 0 -42 19.5t-15 52.5q0 43 24.5 87.5
t63.5 73.5t80 29q90 0 90 -120q0 -71 -36 -143t-104.5 -135.5t-160.5 -108.5z" />
    <glyph glyph-name="quotedblbase" unicode="&#x201e;" horiz-adv-x="838" 
d="M-66 -246q97 59 154 129t64 140q-59 -52 -107 -52q-27 0 -42 19.5t-15 52.5q0 43 24.5 87.5t63.5 73.5t80 29q90 0 90 -120q0 -71 -36 -143t-104.5 -135.5t-160.5 -108.5zM274 -246q97 59 154 129t64 140q-59 -52 -107 -52q-27 0 -42 19.5t-15 52.5q0 43 24.5 87.5
t63.5 73.5t80 29q90 0 90 -120q0 -71 -36 -143t-104.5 -135.5t-160.5 -108.5z" />
    <glyph glyph-name="bullet" unicode="&#x2022;" horiz-adv-x="911" 
d="M138 481q0 19 1 29q9 80 55 147t116.5 106.5t150.5 39.5q74 0 134.5 -34.5t95 -94t34.5 -132.5q0 -10 -2 -32q-8 -80 -54 -146.5t-117 -105.5t-151 -39q-74 0 -134 34.5t-94.5 94.5t-34.5 133z" />
    <glyph glyph-name="ellipsis" unicode="&#x2026;" horiz-adv-x="1649" 
d="M-3 76q0 40 22 76.5t57.5 58.5t73.5 22q46 0 75 -30.5t29 -76.5q0 -40 -21.5 -75.5t-57.5 -57.5t-75 -22q-45 0 -74 30t-29 75zM572 76q0 40 22 76.5t57.5 58.5t73.5 22q46 0 75 -30.5t29 -76.5q0 -40 -21.5 -75.5t-57.5 -57.5t-75 -22q-45 0 -74 30t-29 75zM1146 76
q0 40 22 76.5t57.5 58.5t73.5 22q46 0 75 -30.5t29 -76.5q0 -40 -21.5 -75.5t-57.5 -57.5t-75 -22q-45 0 -74 30t-29 75z" />
    <glyph glyph-name="uni202F" unicode="&#x202f;" horiz-adv-x="383" 
 />
    <glyph glyph-name="guilsinglleft" unicode="&#x2039;" horiz-adv-x="721" 
d="M49 498v4q157 110 294 253t271 326h37q-42 -90 -120 -206t-166.5 -218.5t-161.5 -156.5q57 -47 116.5 -141t106 -200t66.5 -188h-37q-181 353 -406 527z" />
    <glyph glyph-name="guilsinglright" unicode="&#x203a;" horiz-adv-x="719" 
d="M31 -29q42 90 120 206t166.5 219t161.5 157q-57 47 -116.5 140.5t-106 199.5t-66.5 188h37q181 -354 406 -528v-2q-157 -112 -294.5 -254.5t-270.5 -325.5h-37z" />
    <glyph glyph-name="uni205F" unicode="&#x205f;" horiz-adv-x="479" 
 />
    <glyph glyph-name="Euro" unicode="&#x20ac;" horiz-adv-x="1231" 
d="M78 608l12 41h171q19 82 49 164h-177l12 41h181q67 170 170.5 311.5t239 227.5t290.5 86q132 0 213 -72q59 -56 59 -115q0 -35 -19 -68t-51.5 -53t-70.5 -20q-39 0 -62.5 21t-23.5 57q0 48 36.5 87.5t90.5 53.5q-11 30 -57.5 52t-102.5 22q-101 0 -197.5 -80t-177 -214
t-139.5 -296h416l-35 -41h-395q-28 -82 -48 -164h308l-37 -41h-280q-33 -154 -33 -280q0 -159 54.5 -240.5t160.5 -81.5q62 0 123 23.5t86 54.5q-64 12 -64 76q0 36 20.5 68t55 51.5t72.5 19.5q39 0 61.5 -21t22.5 -57q0 -93 -140 -178q-117 -72 -256 -72
q-118 0 -204.5 51.5t-133.5 149.5t-47 236q0 93 21 200h-174z" />
    <glyph glyph-name="trademark" unicode="&#x2122;" horiz-adv-x="2286" 
d="M330 1450q108 -6 372 -6q263 0 371 6q-14 -101 -14 -180q0 -66 6 -107h-47q-9 132 -40 186t-91 54h-111v-612q0 -60 10.5 -86t39.5 -36t96 -14v-41q-98 7 -220 7q-135 0 -221 -7v41q66 4 95 14t40 36.5t11 85.5v612h-111q-60 0 -91 -54t-40 -186h-47q6 41 6 107
q0 79 -14 180zM1190 614v41q48 4 68.5 12t28 30t7.5 73v524q0 51 -7.5 73.5t-28 30.5t-68.5 11v41q46 -6 129 -6q71 0 139 6l248 -608l227 602h97q99 0 157 6v-41q-48 -3 -68.5 -11t-28 -30.5t-7.5 -73.5v-524q0 -51 7.5 -73t28 -30t68.5 -12v-41q-79 7 -178 7
q-95 0 -160 -7v41q38 4 54.5 12t23 30.5t6.5 72.5v545l-268 -711h-33l-291 715v-549q0 -50 6.5 -72.5t23 -30.5t54.5 -12v-41q-49 7 -106 7q-75 0 -129 -7z" />
    <glyph glyph-name="uniE000" unicode="&#xe000;" horiz-adv-x="1275" 
d="M0 0v1275h1275v-1275h-1275z" />
    </font>
</defs>
</svg>
